<?xml version="1.0" encoding="utf-8"?>
<!-- Generator: Adobe Illustrator 23.0.2, SVG Export Plug-In . SVG Version: 6.00 Build 0)  -->
<svg version="1.1" xmlns="http://www.w3.org/2000/svg" xmlns:xlink="http://www.w3.org/1999/xlink" x="0px" y="0px"
	 viewBox="0 0 206.43 193.64" style="enable-background:new 0 0 206.43 193.64;" xml:space="preserve">
<style type="text/css">
	.st0{display:none;opacity:0.349;enable-background:new    ;}
	.st1{display:inline;}
	.st2{fill:#F0EDFA;}
	.st3{display:none;opacity:0.3804;enable-background:new    ;}
	.st4{fill:#EAE5FB;}
	.st5{enable-background:new    ;}
	.st6{fill:#F6BAFC;}
	.st7{fill-rule:evenodd;clip-rule:evenodd;fill:none;stroke:url(#SVGID_1_);stroke-miterlimit:100;}
	.st8{fill:#FFBAFB;}
	.st9{fill:url(#SVGID_2_);}
	.st10{fill-rule:evenodd;clip-rule:evenodd;fill:none;stroke:url(#SVGID_3_);stroke-miterlimit:100;}
	.st11{fill:url(#SVGID_4_);}
	.st12{fill:url(#SVGID_5_);}
	.st13{fill:url(#SVGID_6_);}
	.st14{fill:#605C97;}
	.st15{fill:#F4F2FA;}
	.st16{fill:#F1EEFF;}
	.st17{fill:#5B5D7B;}
	.st18{fill:#767896;}
	.st19{fill:#968EFF;}
	.st20{fill:url(#SVGID_7_);}
	.st21{fill:url(#SVGID_8_);}
</style>
<g id="Rounded_Rectangle_1_copy_1_" class="st0">
	<g id="Rounded_Rectangle_1_copy" class="st1">
		<g>
			<path class="st2" d="M-212.57,117.93c0,29.32,0,42.5,0,42.5c0,18.23,14.77,33,33,33h348c18.23,0,33-14.77,33-33v-156
				C158.93,53.1-20.07,141.42-212.57,117.93z"/>
		</g>
	</g>
</g>
<g id="Rounded_Rectangle_1_copy_2_1_" class="st3">
	<g id="Rounded_Rectangle_1_copy_2" class="st1">
		<g>
			<path class="st4" d="M-5.07,193.43c74.43,1.58,172.5,0,172.5,0c18.23,0,33-14.77,33-33v-84C123.2,188.93-5.34,193.43-5.07,193.43
				z"/>
		</g>
	</g>
</g>
<g id="Shape_3_5_" class="st5">
	<g id="Shape_3">
		<g>
			<path class="st6" d="M183,105.07c0,0-12.05,9.86-18.59,22.17c-6.36,11.98-12.65,33.45-12.65,33.45l1.08,1.73
				c0,0,6.97-23.24,13.25-35.07c6.61-12.45,17.43-22,17.43-22L183,105.07z"/>
		</g>
	</g>
</g>
<g id="Shape_4_3_" class="st5">
	<linearGradient id="SVGID_1_" gradientUnits="userSpaceOnUse" x1="133.98" y1="142.6464" x2="197.807" y2="142.6464">
		<stop  offset="0" style="stop-color:#FFBAFB;stop-opacity:0.4"/>
		<stop  offset="1" style="stop-color:#FFBAFB"/>
	</linearGradient>
	<path class="st7" d="M179.09,190.2c0,0,3.77-7.05,1.73-16.79c-2.3-10.97-11.61-11.09-12.07-20.14
		c-0.28-5.56,13.92-7.28,15.07-16.36c0.59-4.61-4.8-8.4-3.76-12.46c1.08-4.21,6.14-1.54,12.74-7.23c8.17-7.04,3.45-16.8-0.47-18.98
		c-14.41-9.43-19.86,7.02-22.45,9.14c-5.87,1.87-10.29-4.61-18.32,2.67c-5.92,5.37-0.1,16.26-1.27,23.96
		c-1.33,8.74-15.87,38.26-15.87,38.26"/>
</g>
<g id="Shape_3_4_" class="st5">
	<g id="Shape_3_1_">
		<g>
			<path class="st8" d="M173.67,12.47c0,0-12.12,7.63-19.45,18.17c-7.13,10.25-10.79,23.28-10.79,23.28l1.53,0.29
				c0,0,3.74-13.15,10.79-23.28c7.41-10.65,18.38-18.15,18.38-18.15L173.67,12.47L173.67,12.47z"/>
		</g>
	</g>
</g>
<g id="Shape_4_2_" class="st5">
	<g id="Shape_4_1_">
		<g>
			<linearGradient id="SVGID_2_" gradientUnits="userSpaceOnUse" x1="137.4217" y1="43.4318" x2="186.4407" y2="43.4318">
				<stop  offset="0" style="stop-color:#FFBAFB;stop-opacity:0.4"/>
				<stop  offset="1" style="stop-color:#FFBAFB"/>
			</linearGradient>
			<path class="st9" d="M175.93,3.66c2.07,0,4.29,1,6.6,2.97l0.03,0.03l0.04,0.03c1.34,0.99,2.69,3.7,2.62,6.53
				c-0.04,1.95-0.78,4.73-4.02,6.9c-2.7,1.81-4.91,2.09-6.69,2.31c-1.88,0.23-3.82,0.48-4.72,2.8c-0.8,2.06,0.03,4.07,0.83,6.02
				c0.67,1.64,1.31,3.18,0.95,4.61c-0.84,3.39-4.29,4.94-7.62,6.45c-3.05,1.38-5.93,2.68-6.12,5.46c-0.28,4.15,1.72,6.59,3.65,8.95
				c1.85,2.26,3.77,4.6,4.14,8.81c0.44,5-4.55,11.46-7.71,15L139,41.35c2.05-1.35,6.63-4.94,8.22-10.71
				c0.68-2.47,0.56-5.35,0.44-8.14c-0.18-4.37-0.36-8.5,2.41-10.46c1.81-1.28,3.44-1.9,5.01-1.9c1.37,0,2.59,0.46,3.88,0.94
				c1.34,0.5,2.73,1.02,4.33,1.02c0.44,0,0.88-0.04,1.31-0.12l0.23-0.04l0.2-0.13c0.62-0.39,1.24-1.15,2.09-2.19
				C169.06,7.24,172,3.66,175.93,3.66 M175.93,2.44c-6.15,0-9.86,7.27-11.55,8.34c-0.37,0.07-0.74,0.1-1.09,0.1
				c-2.82,0-5.09-1.96-8.21-1.96c-1.61,0-3.45,0.53-5.71,2.12c-5.28,3.73-1.64,13.16-3.32,19.28c-1.91,6.95-8.62,10.57-8.62,10.57
				l20.18,41.78c3.24-3.42,9.77-11.15,9.24-17.26c-0.8-9.13-8.29-10.19-7.79-17.57c0.31-4.53,11.9-4.46,13.7-11.69
				c0.91-3.67-3.06-7.3-1.83-10.48c1.27-3.3,5.09-0.61,10.95-4.53c7.25-4.86,4.39-13.25,1.44-15.42
				C180.54,3.33,178.08,2.44,175.93,2.44L175.93,2.44z M157.6,82.66c-0.05,0.05-0.09,0.09-0.13,0.14L157.6,82.66L157.6,82.66
				L157.6,82.66z M157.47,82.8l-1.62,1.63C155.85,84.43,156.5,83.82,157.47,82.8L157.47,82.8z"/>
		</g>
	</g>
</g>
<g id="Shape_16_1_" class="st5">
	<linearGradient id="SVGID_3_" gradientUnits="userSpaceOnUse" x1="-159.593" y1="186.8829" x2="134.6924" y2="186.8829">
		<stop  offset="0" style="stop-color:#FFFFFF;stop-opacity:0"/>
		<stop  offset="1" style="stop-color:#FFBAFB"/>
	</linearGradient>
	<path class="st10" d="M-159.58,191.93c0,0,82.12-1.51,149.01-4.5c44.66-1.99,78.19-5.8,92-6c34.5-0.5,53,11,53,11"/>
</g>
<g id="Shape_17_1_" class="st5">
	<g id="Shape_17">
		<g>
			<linearGradient id="SVGID_4_" gradientUnits="userSpaceOnUse" x1="119.9285" y1="168.4285" x2="119.9285" y2="187.4285">
				<stop  offset="0" style="stop-color:#FFFFFF;stop-opacity:0"/>
				<stop  offset="1" style="stop-color:#FFBAFB"/>
			</linearGradient>
			<path class="st11" d="M121.43,168.43h-1c0,0-2,4.75-2,9.5c0,4.75,2,9.5,2,9.5h1c0,0-2-4.09-2-9
				C119.43,173.85,121.43,168.43,121.43,168.43L121.43,168.43z"/>
		</g>
	</g>
</g>
<g id="Shape_17_copy_1_" class="st5">
	<g id="Shape_17_copy">
		<g>
			<linearGradient id="SVGID_5_" gradientUnits="userSpaceOnUse" x1="37.4285" y1="166.4285" x2="37.4285" y2="185.4285">
				<stop  offset="0" style="stop-color:#FFFFFF;stop-opacity:0"/>
				<stop  offset="1" style="stop-color:#FFBAFB"/>
			</linearGradient>
			<path class="st12" d="M39.43,166.43h-1c0,0-3,3.42-3,8c0,4.91,3,11,3,11h1c0,0-2-6.11-2-10.5
				C37.43,169.87,39.43,166.43,39.43,166.43L39.43,166.43z"/>
		</g>
	</g>
</g>
<g id="Ellipse_1_copy_2_1_" class="st5">
	<g id="Ellipse_1_copy_2">
		<g>
			<linearGradient id="SVGID_6_" gradientUnits="userSpaceOnUse" x1="8.4328" y1="91.4264" x2="166.4242" y2="91.4264">
				<stop  offset="0" style="stop-color:#7873B8"/>
				<stop  offset="1" style="stop-color:#5B5D7B"/>
			</linearGradient>
			<path class="st13" d="M88.58,12.41c-44.26,0-80.14,35.56-80.14,76.79c0,44.23,35.88,81.23,80.14,81.23
				c44.26,0,77.85-37,77.85-81.23C165.67,48.98,132.84,12.41,88.58,12.41z"/>
		</g>
	</g>
</g>
<g id="Ellipse_1_copy_1_" class="st5">
	<g id="Ellipse_1_copy">
		<g>
			<path class="st14" d="M89.45,16.41c-39.22,0-71.01,29.76-71.01,68.99s31.79,72.04,71.01,72.04c39.22,0,68.98-32.81,68.98-72.04
				S128.66,16.41,89.45,16.41z"/>
		</g>
	</g>
</g>
<g id="Ellipse_1_1_" class="st5">
	<g id="Ellipse_1">
		<g>
			<path class="st15" d="M89.93,15.01c-38.57,0-69.84,29.27-69.84,67.84c0,38.57,31.27,70.84,69.84,70.84s67.84-32.27,67.84-70.84
				C157.77,44.28,128.5,15.01,89.93,15.01z"/>
		</g>
	</g>
	<polygon class="st16" points="153.06,57.84 41.24,133.42 45.03,136.93 156.23,67.84 	"/>
</g>
<g id="Shape_1_3_" class="st5">
	<g id="Shape_1">
		<g>
			<path class="st17" d="M131.82,16.08c-4.4-3.15-13.95-7.68-18.07-9.8c-2.28-1.18-3.81,1.03-3.81,1.03l-2,8l22.49,11.12l3-7
				C133.43,19.43,134.54,18.01,131.82,16.08z"/>
		</g>
	</g>
</g>
<g id="Ellipse_2_1_" class="st5">
	<g id="Ellipse_2">
		<g>
			<path class="st18" d="M29.43,82.43c-2.21,0-4,1.79-4,4c0,2.21,1.79,4,4,4c2.21,0,4-1.79,4-4C33.43,84.22,31.64,82.43,29.43,82.43
				z"/>
		</g>
	</g>
</g>
<g id="Ellipse_2_copy_1_" class="st5">
	<g id="Ellipse_2_copy">
		<g>
			<circle class="st18" cx="149.43" cy="82.43" r="4"/>
		</g>
	</g>
</g>
<g id="Ellipse_2_copy_2_1_" class="st5">
	<g id="Ellipse_2_copy_2">
		<g>
			<path class="st18" d="M88.43,18.43c-2.21,0-4,1.79-4,4c0,2.21,1.79,4,4,4c2.21,0,4-1.79,4-4C92.43,20.22,90.64,18.43,88.43,18.43
				z"/>
		</g>
	</g>
</g>
<g id="Ellipse_2_copy_4_1_" class="st5">
	<g id="Ellipse_2_copy_4">
		<g>
			<path class="st18" d="M92.43,140.43c-2.21,0-4,1.79-4,4c0,2.21,1.79,4,4,4c2.21,0,4-1.79,4-4
				C96.43,142.22,94.64,140.43,92.43,140.43z"/>
		</g>
	</g>
</g>
<g id="Ellipse_2_copy_5_1_" class="st5">
	<g id="Ellipse_2_copy_5">
		<g>
			<path class="st18" d="M117.93,134.43c-1.38,0-2.5,1.12-2.5,2.5c0,1.38,1.12,2.5,2.5,2.5c1.38,0,2.5-1.12,2.5-2.5
				C120.43,135.55,119.31,134.43,117.93,134.43z"/>
		</g>
	</g>
</g>
<g id="Ellipse_2_copy_6_1_" class="st5">
	<g id="Ellipse_2_copy_6">
		<g>
			<path class="st18" d="M139.93,107.43c-1.38,0-2.5,1.12-2.5,2.5c0,1.38,1.12,2.5,2.5,2.5s2.5-1.12,2.5-2.5
				C142.43,108.55,141.31,107.43,139.93,107.43z"/>
		</g>
	</g>
</g>
<g id="Ellipse_2_copy_7_1_" class="st5">
	<g id="Ellipse_2_copy_7">
		<g>
			<path class="st18" d="M141.93,50.43c-1.38,0-2.5,1.12-2.5,2.5c0,1.38,1.12,2.5,2.5,2.5c1.38,0,2.5-1.12,2.5-2.5
				C144.43,51.55,143.31,50.43,141.93,50.43z"/>
		</g>
	</g>
</g>
<g id="Ellipse_2_copy_8_1_" class="st5">
	<g id="Ellipse_2_copy_8">
		<g>
			<path class="st18" d="M117.93,30.43c-1.38,0-2.5,1.12-2.5,2.5c0,1.38,1.12,2.5,2.5,2.5c1.38,0,2.5-1.12,2.5-2.5
				C120.43,31.55,119.31,30.43,117.93,30.43z"/>
		</g>
	</g>
</g>
<g id="Ellipse_2_copy_9_1_" class="st5">
	<g id="Ellipse_2_copy_9">
		<g>
			<path class="st18" d="M59.93,28.43c-1.38,0-2.5,1.12-2.5,2.5c0,1.38,1.12,2.5,2.5,2.5s2.5-1.12,2.5-2.5
				C62.43,29.55,61.31,28.43,59.93,28.43z"/>
		</g>
	</g>
</g>
<g id="Ellipse_2_copy_10_1_" class="st5">
	<g id="Ellipse_2_copy_10">
		<g>
			<path class="st18" d="M37.93,52.43c-1.38,0-2.5,1.12-2.5,2.5c0,1.38,1.12,2.5,2.5,2.5c1.38,0,2.5-1.12,2.5-2.5
				C40.43,53.55,39.31,52.43,37.93,52.43z"/>
		</g>
	</g>
</g>
<g id="Ellipse_2_copy_11_1_" class="st5">
	<g id="Ellipse_2_copy_11">
		<g>
			<path class="st18" d="M37.93,113.43c-1.38,0-2.5,1.12-2.5,2.5c0,1.38,1.12,2.5,2.5,2.5c1.38,0,2.5-1.12,2.5-2.5
				C40.43,114.55,39.31,113.43,37.93,113.43z"/>
		</g>
	</g>
</g>
<g id="Ellipse_2_copy_12_1_" class="st5">
	<g id="Ellipse_2_copy_12">
		<g>
			<path class="st18" d="M61.93,134.43c-1.38,0-2.5,1.12-2.5,2.5c0,1.38,1.12,2.5,2.5,2.5s2.5-1.12,2.5-2.5
				C64.43,135.55,63.31,134.43,61.93,134.43z"/>
		</g>
	</g>
</g>
<g id="Shape_2_3_" class="st5">
	<g id="Shape_2">
		<g>
			<polygon class="st19" points="137.15,58.01 111.19,70.32 89.15,89.01 89.71,89.84 114.38,75.73 137.71,57.84 			"/>
		</g>
	</g>
</g>
<g id="Shape_3_3_" class="st5">
	<g id="Shape_3_2_">
		<g>
			<polygon class="st19" points="63.43,70.43 54.71,68.02 54.14,67.84 60.43,79.43 87.14,91.84 87.71,91.02 			"/>
		</g>
	</g>
</g>
<g id="Ellipse_2_copy_3_1_" class="st5">
	<g id="Ellipse_2_copy_3">
		<g>
			<path class="st19" d="M88.43,86.43c-2.21,0-4,1.79-4,4c0,2.21,1.79,4,4,4c2.21,0,4-1.79,4-4C92.43,88.22,90.64,86.43,88.43,86.43
				z"/>
		</g>
	</g>
</g>
<g id="Shape_2_2_" class="st5">
	<g id="Shape_2_1_">
		<g>
			<linearGradient id="SVGID_7_" gradientUnits="userSpaceOnUse" x1="139.7154" y1="193.979" x2="139.7154" y2="103.4165">
				<stop  offset="0" style="stop-color:#8BD9BB"/>
				<stop  offset="1" style="stop-color:#0DACC1"/>
			</linearGradient>
			<path class="st20" d="M155.24,165.11c-0.54-4.87,5.51-9.63,4.14-15.08c-2.14-8.52-13.66-11.54-6.43-22.02
				c9.31-13.49-1.78-25.21-11.69-24.56c-10.94,0.72-15.27,9.22-11.71,20.97c1.24,4.11,1.82,9.57-0.25,13.47
				c-3.24,6.1-10.47,8.98-10.47,17.16c0,8.37,7.94,9.15,8.38,14.34c0.62,7.19-5.73,4.95-4.78,12.05c1.05,7.89,8,12,8,12l12.74,0.55
				l10.05-0.09c0,0,7.1-2.06,7.38-15.54C160.77,170.05,155.65,168.83,155.24,165.11z"/>
		</g>
	</g>
</g>
<g id="Shape_1_2_" class="st5">
	<g id="Shape_1_1_">
		<g>
			
				<linearGradient id="SVGID_8_" gradientUnits="userSpaceOnUse" x1="137.4795" y1="153.4668" x2="145.2094" y2="153.4668" gradientTransform="matrix(1 0 0 1 0 -1)">
				<stop  offset="0" style="stop-color:#8BD9BB"/>
				<stop  offset="1" style="stop-color:#0DACC1"/>
			</linearGradient>
			<path class="st21" d="M138.76,152.12c0.69-20.51,6.45-40.37,6.45-40.37l-0.89-0.45c0,0-6.09,20.72-6.77,41.07
				c-0.7,20.82,4.01,41.28,4.01,41.28l1.42-0.66C137.83,171.84,138.1,171.78,138.76,152.12z"/>
		</g>
	</g>
</g>
</svg>
