<?xml version="1.0" encoding="utf-8"?>
<!-- Generator: Adobe Illustrator 23.0.2, SVG Export Plug-In . SVG Version: 6.00 Build 0)  -->
<svg version="1.1" id="Layer_1" xmlns="http://www.w3.org/2000/svg" xmlns:xlink="http://www.w3.org/1999/xlink" x="0px" y="0px"
	 viewBox="0 0 277 230.49" style="enable-background:new 0 0 277 230.49;" xml:space="preserve">
<style type="text/css">
	.st0{enable-background:new    ;}
	.st1{fill:url(#SVGID_1_);}
	.st2{fill:url(#SVGID_2_);}
	.st3{fill:url(#SVGID_3_);}
	.st4{opacity:0.38;}
	.st5{fill:url(#SVGID_4_);}
	.st6{fill:#EDECFA;}
	.st7{fill:url(#SVGID_5_);}
	.st8{fill:url(#SVGID_6_);}
	.st9{fill:url(#SVGID_7_);}
	.st10{fill:url(#SVGID_8_);}
	.st11{fill:url(#SVGID_9_);}
	.st12{fill:url(#SVGID_10_);}
	.st13{fill:#F6F5FA;}
	.st14{fill:#E4E2EE;}
	.st15{fill:#CFC9E9;}
	.st16{fill:#BEBAFC;}
	.st17{fill:url(#SVGID_11_);}
	.st18{opacity:0.44;}
	.st19{fill:url(#SVGID_12_);}
	.st20{fill:#BCB8D1;}
	.st21{fill:none;stroke:url(#SVGID_13_);stroke-miterlimit:100;}
	.st22{fill:none;stroke:url(#SVGID_14_);stroke-miterlimit:100;}
	.st23{fill:url(#SVGID_15_);}
	.st24{fill:url(#SVGID_16_);}
	.st25{fill:url(#SVGID_17_);}
	.st26{fill:url(#SVGID_18_);}
	.st27{fill:url(#SVGID_19_);}
	.st28{fill:none;stroke:url(#SVGID_20_);stroke-miterlimit:100;}
</style>
<g id="Shape_8_3_" class="st0">
	<g id="Shape_8">
		<g>
			
				<linearGradient id="SVGID_1_" gradientUnits="userSpaceOnUse" x1="43.4979" y1="10.9419" x2="43.4979" y2="130.6903" gradientTransform="matrix(1 0 0 -1 0 192)">
				<stop  offset="0" style="stop-color:#8BD9BB"/>
				<stop  offset="1" style="stop-color:#0DACC1"/>
			</linearGradient>
			<path class="st1" d="M71,155.24c-7.69-31.77-13.06-36.25-13.57-42.96c-3-39.45-31.43-57.9-41.75-48.6
				c-5.9,7.46,13.2,15.18,17.15,39.38c3.32,20.29-11.81,43.55-1.02,67.64c5.02,11.2,21.28,9.81,21.28,9.81S78.68,187.01,71,155.24z"
				/>
		</g>
	</g>
</g>
<g id="Shape_7_3_" class="st0">
	<g id="Shape_7">
		<g>
			
				<linearGradient id="SVGID_2_" gradientUnits="userSpaceOnUse" x1="18.75" y1="51.025" x2="53.9495" y2="51.025" gradientTransform="matrix(1 0 0 -1 0 192)">
				<stop  offset="0" style="stop-color:#FFFFFF;stop-opacity:0"/>
				<stop  offset="1" style="stop-color:#FFBAFB"/>
			</linearGradient>
			<path class="st2" d="M46.67,104.59c-7.05-30.31-27.42-37.46-27.42-37.46l-0.5,0.12c0,0,20.18,8.98,26.89,37.86
				c9.84,42.29,7.44,109.71,7.44,109.71l0.5-0.12C53.58,214.7,56.36,146.23,46.67,104.59z"/>
		</g>
	</g>
</g>
<g id="Shape_5_copy_1_" class="st0">
	<g id="Shape_5_copy">
		<g>
			
				<linearGradient id="SVGID_3_" gradientUnits="userSpaceOnUse" x1="40.7" y1="87.025" x2="264.47" y2="87.025" gradientTransform="matrix(1 0 0 -1 0 192)">
				<stop  offset="0" style="stop-color:#7873B8"/>
				<stop  offset="1" style="stop-color:#5B5D7B"/>
			</linearGradient>
			<polygon class="st3" points="258.43,41.17 47.9,68.36 40.7,163.63 46.69,168.78 264.47,168.78 264.47,45.37 			"/>
		</g>
	</g>
</g>
<g id="Shape_8_2_" class="st0">
	<g id="Shape_8_1_" class="st4">
		<g>
			
				<linearGradient id="SVGID_4_" gradientUnits="userSpaceOnUse" x1="266.9721" y1="48.5233" x2="255.9179" y2="29.3768" gradientTransform="matrix(1 0 0 -1 0 192)">
				<stop  offset="0" style="stop-color:#7873B8;stop-opacity:0"/>
				<stop  offset="0.0582" style="stop-color:#706CAA;stop-opacity:0.0582"/>
				<stop  offset="0.1958" style="stop-color:#615F8F;stop-opacity:0.1958"/>
				<stop  offset="0.3454" style="stop-color:#56557A;stop-opacity:0.3454"/>
				<stop  offset="0.5113" style="stop-color:#4D4E6B;stop-opacity:0.5113"/>
				<stop  offset="0.7059" style="stop-color:#484962;stop-opacity:0.7059"/>
				<stop  offset="1" style="stop-color:#47485F"/>
			</linearGradient>
			<polygon class="st5" points="264.85,142.9 257.59,138.06 258.05,163.2 265.3,168.04 			"/>
		</g>
	</g>
</g>
<g id="Shape_5_3_" class="st0">
	<g id="Shape_5">
		<g>
			<path class="st6" d="M41.85,63.52l-1.21,100.42c0,0,48.94,0,100.42,0c57.12,0,117.36,0,117.36,0V40.53L41.85,63.52z"/>
		</g>
	</g>
</g>
<g id="Shape_6_3_" class="st0">
	<g id="Shape_6">
		<g>
			
				<linearGradient id="SVGID_5_" gradientUnits="userSpaceOnUse" x1="153.7661" y1="82.51" x2="157.3961" y2="82.51" gradientTransform="matrix(1 0 0 -1 0 192)">
				<stop  offset="0" style="stop-color:#EDECFA"/>
				<stop  offset="0.4949" style="stop-color:#767896"/>
				<stop  offset="1" style="stop-color:#EDECFA"/>
			</linearGradient>
			<polygon class="st7" points="156.19,55.03 153.77,163.93 154.98,163.95 157.4,55.06 			"/>
		</g>
	</g>
</g>
<g id="Shape_6_copy_1_" class="st0">
	<g id="Shape_6_copy">
		<g>
			
				<linearGradient id="SVGID_6_" gradientUnits="userSpaceOnUse" x1="200.9527" y1="84.925" x2="203.3727" y2="84.925" gradientTransform="matrix(1 0 0 -1 0 192)">
				<stop  offset="0" style="stop-color:#EDECFA"/>
				<stop  offset="0.4949" style="stop-color:#767896"/>
				<stop  offset="1" style="stop-color:#EDECFA"/>
			</linearGradient>
			<polygon class="st8" points="202.16,50.2 200.95,163.93 202.16,163.95 203.37,50.22 			"/>
		</g>
	</g>
</g>
<g id="Shape_6_copy_2_1_" class="st0">
	<g id="Shape_6_copy_2">
		<g>
			
				<linearGradient id="SVGID_7_" gradientUnits="userSpaceOnUse" x1="70.29" y1="81.89" x2="117.47" y2="81.89" gradientTransform="matrix(1 0 0 -1 0 192)">
				<stop  offset="0" style="stop-color:#EDECFA"/>
				<stop  offset="0.4949" style="stop-color:#767896"/>
				<stop  offset="1" style="stop-color:#EDECFA"/>
			</linearGradient>
			<path class="st9" d="M78.15,56.26h-1.21l-6.65,107.67l1.21,0.03L78.15,56.26L78.15,56.26z M116.26,57.45l-4.84,106.47l1.21,0.03
				l4.84-106.47L116.26,57.45L116.26,57.45z"/>
		</g>
	</g>
</g>
<g id="Shape_7_2_" class="st0">
	<g id="Shape_7_1_">
		<g>
			
				<linearGradient id="SVGID_8_" gradientUnits="userSpaceOnUse" x1="43.02" y1="111.545" x2="257.26" y2="111.545" gradientTransform="matrix(1 0 0 -1 0 192)">
				<stop  offset="0" style="stop-color:#EDECFA"/>
				<stop  offset="0.4949" style="stop-color:#767896"/>
				<stop  offset="1" style="stop-color:#EDECFA"/>
			</linearGradient>
			<polygon class="st10" points="257.17,72.59 43.02,87.11 43.1,88.32 257.26,73.8 			"/>
		</g>
	</g>
</g>
<g id="Shape_7_copy_1_" class="st0">
	<g id="Shape_7_copy">
		<g>
			
				<linearGradient id="SVGID_9_" gradientUnits="userSpaceOnUse" x1="41.81" y1="81.9" x2="257.26" y2="81.9" gradientTransform="matrix(1 0 0 -1 0 192)">
				<stop  offset="0" style="stop-color:#EDECFA"/>
				<stop  offset="0.4949" style="stop-color:#767896"/>
				<stop  offset="1" style="stop-color:#EDECFA"/>
			</linearGradient>
			<polygon class="st11" points="257.17,105.26 41.81,113.73 41.89,114.94 257.26,106.47 			"/>
		</g>
	</g>
</g>
<g id="Shape_7_copy_2_1_" class="st0">
	<g id="Shape_7_copy_2">
		<g>
			
				<linearGradient id="SVGID_10_" gradientUnits="userSpaceOnUse" x1="40.6" y1="52.86" x2="257.26" y2="52.86" gradientTransform="matrix(1 0 0 -1 0 192)">
				<stop  offset="0" style="stop-color:#EDECFA"/>
				<stop  offset="0.4949" style="stop-color:#767896"/>
				<stop  offset="1" style="stop-color:#EDECFA"/>
			</linearGradient>
			<polygon class="st12" points="257.17,135.51 40.6,141.56 40.68,142.77 257.26,136.72 			"/>
		</g>
	</g>
</g>
<g id="Rectangle_5_1_" class="st0">
	<g id="Rectangle_5">
		<g>
			<rect x="218.5" y="65.94" class="st13" width="33.88" height="32.67"/>
		</g>
	</g>
</g>
<g id="Rectangle_2_1_" class="st0">
	<g id="Rectangle_2">
		<g>
			<polygon class="st14" points="187.04,94.98 187.04,124.01 243.9,124.01 243.9,90.14 			"/>
		</g>
	</g>
</g>
<g id="Rectangle_3_1_" class="st0">
	<g id="Rectangle_3">
		<g>
			<polygon class="st15" points="78.15,64.73 78.15,93.77 133.8,93.77 133.8,58.68 			"/>
		</g>
	</g>
</g>
<g id="Rectangle_4_1_" class="st0">
	<g id="Rectangle_4">
		<g>
			<polygon class="st16" points="105.97,121.59 105.97,139.74 143.48,139.74 143.48,120.38 			"/>
		</g>
	</g>
</g>
<g id="Rectangle_6_1_" class="st0">
	<g id="Rectangle_6">
		<g>
			<polygon class="st13" points="135.01,130.06 135.01,156.68 187.04,156.68 187.04,126.43 			"/>
		</g>
	</g>
</g>
<g id="Rectangle_1_copy_1_" class="st0">
	<g id="Rectangle_1_copy">
		<g>
			
				<linearGradient id="SVGID_11_" gradientUnits="userSpaceOnUse" x1="43.02" y1="154.245" x2="262.05" y2="154.245" gradientTransform="matrix(1 0 0 -1 0 192)">
				<stop  offset="0" style="stop-color:#7873B8"/>
				<stop  offset="1" style="stop-color:#5B5D7B"/>
			</linearGradient>
			<path class="st17" d="M258.08,13.2c0,0-60.55,8.57-116.66,16.51C93,36.56,47.9,42.95,47.9,42.95l-4.88,15.6l4.88,3.76
				l214.15-24.2V16.33L258.08,13.2z"/>
		</g>
	</g>
</g>
<g id="Shape_8_copy_1_" class="st0">
	<g id="Shape_8_copy" class="st18">
		<g>
			
				<linearGradient id="SVGID_12_" gradientUnits="userSpaceOnUse" x1="261.7147" y1="168.22" x2="256.1832" y2="158.6392" gradientTransform="matrix(1 0 0 -1 0 192)">
				<stop  offset="0" style="stop-color:#7873B8;stop-opacity:0"/>
				<stop  offset="0.0582" style="stop-color:#706CAA;stop-opacity:0.0582"/>
				<stop  offset="0.1958" style="stop-color:#615F8F;stop-opacity:0.1958"/>
				<stop  offset="0.3454" style="stop-color:#56557A;stop-opacity:0.3454"/>
				<stop  offset="0.5113" style="stop-color:#4D4E6B;stop-opacity:0.5113"/>
				<stop  offset="0.7059" style="stop-color:#484962;stop-opacity:0.7059"/>
				<stop  offset="1" style="stop-color:#47485F"/>
			</linearGradient>
			<polygon class="st19" points="256.38,20.7 256.84,33.74 261.68,36.16 262.43,25.54 			"/>
		</g>
	</g>
</g>
<g id="Rectangle_1_1_" class="st0">
	<g id="Rectangle_1">
		<g>
			<polygon class="st6" points="41.85,39.32 43.02,58.55 257.21,34.48 257.21,12.7 			"/>
		</g>
	</g>
</g>
<g id="Ellipse_3_1_" class="st0">
	<g id="Ellipse_3">
		<g>
			<path class="st13" d="M206.4,21.17c-2,0-3.63,2.71-3.63,6.05c0,3.34,1.63,6.05,3.63,6.05s3.63-2.71,3.63-6.05
				S208.4,21.17,206.4,21.17z"/>
		</g>
	</g>
	<path class="st20" d="M202.64,29.86c-1.69-5.86,1.02-7.6,1.02-7.6s-1.47,3.19-0.31,7.01c1.44,4.73,3.65,4,3.65,4
		S203.93,34.32,202.64,29.86z"/>
</g>
<g id="Ellipse_3_copy_1_" class="st0">
	<g id="Ellipse_3_copy">
		<g>
			<path class="st13" d="M66.65,40.53c-1.67,0-3.02,2.17-3.02,4.84s1.35,4.84,3.02,4.84c1.67,0,3.02-2.17,3.02-4.84
				C69.68,42.7,68.32,40.53,66.65,40.53z"/>
		</g>
	</g>
</g>
<g id="Ellipse_4_1_" class="st0">
	
		<linearGradient id="SVGID_13_" gradientUnits="userSpaceOnUse" x1="196.22" y1="176.27" x2="215.36" y2="176.27" gradientTransform="matrix(1 0 0 -1 0 192)">
		<stop  offset="0" style="stop-color:#6B699C"/>
		<stop  offset="0.4949" style="stop-color:#767896"/>
		<stop  offset="1" style="stop-color:#706DA7"/>
	</linearGradient>
	<path class="st21" d="M209.79,27.13c-0.88,0.61-1.85,1.02-2.87,1.2c-0.37,0.06-0.75,0.1-1.13,0.1c-5.01,0-9.07-5.69-9.07-12.7
		s4.06-12.7,9.07-12.7s9.07,5.69,9.07,12.7c0,0.89-0.06,1.75-0.19,2.59"/>
</g>
<g id="Ellipse_4_copy_1_" class="st0">
	<path class="st20" d="M63.54,47.41c-1.69-5.86,2.02-6.6,2.02-6.6s-2.47,2.19-1.31,6.01c1.44,4.73,3.65,3,3.65,3
		S64.83,51.88,63.54,47.41z"/>
	
		<linearGradient id="SVGID_14_" gradientUnits="userSpaceOnUse" x1="55.87" y1="158.12" x2="75.01" y2="158.12" gradientTransform="matrix(1 0 0 -1 0 192)">
		<stop  offset="0" style="stop-color:#6B699C"/>
		<stop  offset="0.4949" style="stop-color:#767896"/>
		<stop  offset="1" style="stop-color:#706DA7"/>
	</linearGradient>
	<path class="st22" d="M69.44,45.28c-1.21,0.83-2.56,1.3-4,1.3c-5.01,0-9.07-5.69-9.07-12.7s4.06-12.7,9.07-12.7
		s9.07,5.69,9.07,12.7c0,0.89-0.06,1.75-0.19,2.59"/>
</g>
<g id="Shape_2_1_" class="st0">
	<g id="Shape_2">
		<g>
			
				<linearGradient id="SVGID_15_" gradientUnits="userSpaceOnUse" x1="200.0873" y1="-25.5866" x2="200.0873" y2="68.2837" gradientTransform="matrix(1 0 0 -1 0 192)">
				<stop  offset="0" style="stop-color:#8BD9BB"/>
				<stop  offset="1" style="stop-color:#0DACC1"/>
			</linearGradient>
			<path class="st23" d="M209.39,154.73c-1.43-17.18,12.73-25.09,9.47-29.16c-6.17-7.7-23.31,10.41-25.36,20.96
				c-1.57,8.07,1.25,17.17-2.56,24.6c-4.89,9.52-14,12.01-13.32,24.08c4.1,26.64,22.8,22.08,22.8,22.08s18.55-1.53,21.78-22.08
				C225.13,176.62,210.66,168.23,209.39,154.73z"/>
		</g>
	</g>
</g>
<g id="Shape_1_1_" class="st0">
	<g id="Shape_1">
		<g>
			
				<linearGradient id="SVGID_16_" gradientUnits="userSpaceOnUse" x1="227.9902" y1="53.9649" x2="183.359" y2="-23.3385" gradientTransform="matrix(1 0 0 -1 0 192)">
				<stop  offset="0" style="stop-color:#8BD9BB"/>
				<stop  offset="0.2609" style="stop-color:#8ED8BD"/>
				<stop  offset="0.4389" style="stop-color:#97D6C1"/>
				<stop  offset="0.5922" style="stop-color:#A6D2CA"/>
				<stop  offset="0.7314" style="stop-color:#BCCCD6"/>
				<stop  offset="0.8612" style="stop-color:#D8C5E5"/>
				<stop  offset="0.9824" style="stop-color:#F9BBF8"/>
				<stop  offset="1" style="stop-color:#FFBAFB"/>
			</linearGradient>
			<path class="st24" d="M199.66,164.98c2.4-20.52,12.04-36.35,12.04-36.35l-0.51-0.06c0,0-10.3,12.75-13.07,36.41
				c-2.87,24.49,1.8,59.92,1.8,59.92l0.51,0.06C200.43,224.96,196.52,191.78,199.66,164.98z"/>
		</g>
	</g>
</g>
<g id="Shape_3_1_" class="st0">
	<g id="Shape_3">
		<g>
			
				<linearGradient id="SVGID_17_" gradientUnits="userSpaceOnUse" x1="213.24" y1="48.9517" x2="221.4674" y2="48.9517" gradientTransform="matrix(1 0 0 -1 0 192)">
				<stop  offset="0" style="stop-color:#8BD9BB"/>
				<stop  offset="1" style="stop-color:#0DACC1"/>
			</linearGradient>
			<path class="st25" d="M220.44,137.19c-3.68-3.5-8.9,9.73-6.66,11.79c2.37,2.17,2.71-3.1,4.84-5.51
				C220.82,140.97,222.71,139.34,220.44,137.19z"/>
		</g>
	</g>
</g>
<g id="Shape_4_1_" class="st0">
	<g id="Shape_4">
		<g>
			
				<linearGradient id="SVGID_18_" gradientUnits="userSpaceOnUse" x1="234.5337" y1="-11.55" x2="243.25" y2="-11.55" gradientTransform="matrix(1 0 0 -1 0 192)">
				<stop  offset="0" style="stop-color:#FFFFFF;stop-opacity:0"/>
				<stop  offset="1" style="stop-color:#FFBAFB"/>
			</linearGradient>
			<path class="st26" d="M237.87,201.75c-1.97-12.65-2.82-24.63-2.82-24.63l-0.51,0.08c0,0-0.21,12.74,1.79,25.58
				c2.1,13.53,6.41,27.2,6.41,27.2l0.51-0.08C243.24,229.89,239.99,215.44,237.87,201.75z"/>
		</g>
	</g>
</g>
<g id="Shape_5_2_" class="st0">
	<g id="Shape_5_1_">
		<g>
			
				<linearGradient id="SVGID_19_" gradientUnits="userSpaceOnUse" x1="225.5592" y1="-6.18" x2="255.2991" y2="-6.18" gradientTransform="matrix(1 0 0 -1 0 192)">
				<stop  offset="0" style="stop-color:#FFFFFF"/>
				<stop  offset="1" style="stop-color:#FFBAFB"/>
			</linearGradient>
			<path class="st27" d="M235.53,174.34c7.11,0,9.68,13.57,10.07,18.8l0.05,0.65l0.51,0.41c0.06,0.04,5.58,4.51,7.17,10.97
				c1.05,4.28,0.38,8.89-1.74,12.04c-1.71,2.53-4.25,4.06-7.53,4.53c-1.31,0.19-2.57,0.28-3.74,0.28c-4.12,0-7.36-1.17-9.61-3.47
				c-3.58-3.66-3.65-9.11-3.65-9.57c0.06-0.74,0.75-9.45,1.53-18.38c0.17-1.94,0.15-3.79,0.12-5.59c-0.08-6.2,0.1-9.24,5.16-10.46
				C234.44,174.41,235,174.34,235.53,174.34 M235.53,172.85c-0.64,0-1.31,0.08-2.02,0.25c-8.41,2.04-5.72,9.45-6.41,17.37
				c-0.82,9.41-1.54,18.45-1.54,18.45s-0.37,14.59,14.75,14.59c1.21,0,2.53-0.09,3.95-0.3c9.73-1.39,12.3-11.08,10.51-18.39
				c-1.73-7.07-7.69-11.79-7.69-11.79S245.6,172.85,235.53,172.85L235.53,172.85z"/>
		</g>
	</g>
</g>
<g id="Shape_6_2_" class="st0">
	
		<linearGradient id="SVGID_20_" gradientUnits="userSpaceOnUse" x1="-102.6025" y1="-23.6518" x2="242.4232" y2="-23.6518" gradientTransform="matrix(1 0 0 -1 0 192)">
		<stop  offset="0" style="stop-color:#FFFFFF;stop-opacity:0"/>
		<stop  offset="1" style="stop-color:#FFBAFB"/>
	</linearGradient>
	<path class="st28" d="M-102.13,230.49c14.35-41.42,89.16,2.43,148.24-16.57c11.96-5.29,23.6,5.88,49.19,4.1
		c20.93-3.46,36.25-16.41,59.95-16.87c18.45,0.17,23.3,9.26,27.66,16.98c8.54,15.12,56.6-2.59,59.02,11.93"/>
</g>
</svg>
