<?xml version="1.0" encoding="utf-8"?>
<!-- Generator: Adobe Illustrator 23.0.2, SVG Export Plug-In . SVG Version: 6.00 Build 0)  -->
<svg version="1.1" xmlns="http://www.w3.org/2000/svg" xmlns:xlink="http://www.w3.org/1999/xlink" x="0px" y="0px"
	 viewBox="0 0 250.57 241.14" style="enable-background:new 0 0 250.57 241.14;" xml:space="preserve">
<style type="text/css">
	.st0{display:none;enable-background:new    ;}
	.st1{enable-background:new    ;}
	.st2{fill:url(#SVGID_1_);}
	.st3{opacity:0.38;}
	.st4{fill:url(#SVGID_2_);}
	.st5{fill:#EDECFA;}
	.st6{opacity:0.32;enable-background:new    ;}
	.st7{opacity:0.51;}
	.st8{fill:url(#SVGID_3_);}
	.st9{fill:url(#SVGID_4_);}
	.st10{fill:url(#SVGID_5_);}
	.st11{opacity:0.46;enable-background:new    ;}
	.st12{fill:url(#SVGID_6_);}
	.st13{fill:url(#SVGID_7_);}
	.st14{opacity:0.46;}
	.st15{fill:url(#SVGID_8_);}
	.st16{fill:#F6F5FA;}
	.st17{fill:#E4E2EE;}
	.st18{fill:#CFC9E9;}
	.st19{fill:#BEBAFC;}
	.st20{display:inline;}
	.st21{fill:url(#SVGID_9_);}
	.st22{opacity:0.44;}
	.st23{fill:url(#SVGID_10_);}
	.st24{fill:#BCB8D1;}
	.st25{fill-rule:evenodd;clip-rule:evenodd;fill:none;stroke:url(#SVGID_11_);stroke-miterlimit:100;}
	.st26{fill-rule:evenodd;clip-rule:evenodd;fill:none;stroke:url(#SVGID_12_);stroke-miterlimit:100;}
	.st27{fill:#B2B2B2;}
	.st28{font-family:'Defense-It';}
	.st29{font-size:71.4876px;}
	.st30{letter-spacing:1;}
	.st31{font-size:73.4734px;}
	.st32{font-size:76.452px;}
	.st33{font-size:79.4306px;}
	.st34{fill:#9D9EBF;}
	.st35{fill:url(#SVGID_13_);}
	.st36{fill:#C6C4E7;}
	.st37{fill:#9D9EBB;}
	.st38{fill:#E0DFF9;}
	.st39{fill:#A9A9C6;}
	.st40{fill:#757796;}
	.st41{fill:url(#SVGID_14_);}
	.st42{fill:#62B8A2;}
	.st43{fill:url(#SVGID_15_);}
	.st44{fill:url(#SVGID_16_);}
	.st45{fill:url(#SVGID_17_);}
	.st46{fill:url(#SVGID_18_);}
	.st47{fill-rule:evenodd;clip-rule:evenodd;fill:none;stroke:url(#SVGID_19_);stroke-miterlimit:100;}
</style>
<g id="Shape_8_3_" class="st0">
</g>
<g id="Shape_5_copy_1_" class="st1">
	<g id="Shape_5_copy">
		<g>
			
				<linearGradient id="SVGID_1_" gradientUnits="userSpaceOnUse" x1="14.2728" y1="112.4039" x2="238.0443" y2="112.4039" gradientTransform="matrix(1 0 0 1 0 -7)">
				<stop  offset="0" style="stop-color:#7873B8"/>
				<stop  offset="1" style="stop-color:#5B5D7B"/>
			</linearGradient>
			<polygon class="st2" points="232,41.6 21.47,68.79 14.27,164.06 20.26,169.21 238.04,169.21 238.04,45.8 			"/>
		</g>
	</g>
</g>
<g id="Shape_8_2_" class="st1">
	<g id="Shape_8_5_" class="st3">
		<g>
			
				<linearGradient id="SVGID_2_" gradientUnits="userSpaceOnUse" x1="240.5467" y1="150.906" x2="229.4922" y2="170.053" gradientTransform="matrix(1 0 0 1 0 -7)">
				<stop  offset="0" style="stop-color:#7873B8;stop-opacity:0"/>
				<stop  offset="0.0582" style="stop-color:#706CAA;stop-opacity:0.0582"/>
				<stop  offset="0.1958" style="stop-color:#615F8F;stop-opacity:0.1958"/>
				<stop  offset="0.3454" style="stop-color:#56557A;stop-opacity:0.3454"/>
				<stop  offset="0.5113" style="stop-color:#4D4E6B;stop-opacity:0.5113"/>
				<stop  offset="0.7059" style="stop-color:#484962;stop-opacity:0.7059"/>
				<stop  offset="1" style="stop-color:#47485F"/>
			</linearGradient>
			<polygon class="st4" points="238.42,143.33 231.16,138.49 231.62,163.63 238.88,168.47 			"/>
		</g>
	</g>
</g>
<g id="Shape_5_3_" class="st1">
	<g id="Shape_5">
		<g>
			<path class="st5" d="M15.42,63.95l-1.21,100.42c0,0,48.94,0,100.42,0c57.12,0,117.36,0,117.36,0V40.96L15.42,63.95z"/>
		</g>
	</g>
</g>
<g id="Shape_6_3_" class="st6">
	<g id="Shape_6_6_" class="st7">
		<g>
			<linearGradient id="SVGID_3_" gradientUnits="userSpaceOnUse" x1="127.3376" y1="109.9227" x2="130.9671" y2="109.9227">
				<stop  offset="0" style="stop-color:#EDECFA"/>
				<stop  offset="0.4949" style="stop-color:#767896"/>
				<stop  offset="1" style="stop-color:#EDECFA"/>
			</linearGradient>
			<polygon class="st8" points="129.76,55.46 127.34,164.36 128.55,164.38 130.97,55.49 129.76,55.46 			"/>
		</g>
	</g>
</g>
<g id="Shape_6_copy_1_" class="st6">
	<g id="Shape_6_copy">
		<g>
			<linearGradient id="SVGID_4_" gradientUnits="userSpaceOnUse" x1="174.5242" y1="107.5029" x2="176.9436" y2="107.5029">
				<stop  offset="0" style="stop-color:#EDECFA"/>
				<stop  offset="0.4949" style="stop-color:#767896"/>
				<stop  offset="1" style="stop-color:#EDECFA"/>
			</linearGradient>
			<polygon class="st9" points="175.73,50.62 174.52,164.36 175.73,164.38 176.94,50.65 175.73,50.62 			"/>
		</g>
	</g>
</g>
<g id="Shape_6_copy_2_1_" class="st6">
	<g id="Shape_6_copy_2_3_">
		<g>
			<linearGradient id="SVGID_5_" gradientUnits="userSpaceOnUse" x1="43.8538" y1="110.5344" x2="91.0401" y2="110.5344">
				<stop  offset="0" style="stop-color:#EDECFA"/>
				<stop  offset="0.4949" style="stop-color:#767896"/>
				<stop  offset="1" style="stop-color:#EDECFA"/>
			</linearGradient>
			<path class="st10" d="M51.72,56.69h-1.21l-6.65,107.67l1.21,0.03L51.72,56.69L51.72,56.69z M89.83,57.88l-4.84,106.47l1.21,0.03
				l4.84-106.47L89.83,57.88L89.83,57.88z"/>
		</g>
	</g>
</g>
<g id="Shape_7_2_" class="st11">
	<g id="Shape_7_1_">
		<g>
			<linearGradient id="SVGID_6_" gradientUnits="userSpaceOnUse" x1="16.5887" y1="80.8849" x2="230.8268" y2="80.8849">
				<stop  offset="0" style="stop-color:#EDECFA"/>
				<stop  offset="0.4949" style="stop-color:#767896"/>
				<stop  offset="1" style="stop-color:#EDECFA"/>
			</linearGradient>
			<polygon class="st12" points="230.74,73.02 16.59,87.54 16.67,88.75 230.83,74.23 230.74,73.02 			"/>
		</g>
	</g>
</g>
<g id="Shape_7_copy_1_" class="st11">
	<g id="Shape_7_copy_3_">
		<g>
			<linearGradient id="SVGID_7_" gradientUnits="userSpaceOnUse" x1="15.3787" y1="110.5277" x2="230.8269" y2="110.5277">
				<stop  offset="0" style="stop-color:#EDECFA"/>
				<stop  offset="0.4949" style="stop-color:#767896"/>
				<stop  offset="1" style="stop-color:#EDECFA"/>
			</linearGradient>
			<polygon class="st13" points="230.74,105.69 15.38,114.16 15.46,115.37 230.83,106.9 230.74,105.69 			"/>
		</g>
	</g>
</g>
<g id="Shape_7_copy_2_1_" class="st1">
	<g id="Shape_7_copy_2" class="st14">
		<g>
			<linearGradient id="SVGID_8_" gradientUnits="userSpaceOnUse" x1="14.1687" y1="139.5655" x2="230.8269" y2="139.5655">
				<stop  offset="0" style="stop-color:#EDECFA"/>
				<stop  offset="0.4949" style="stop-color:#767896"/>
				<stop  offset="1" style="stop-color:#EDECFA"/>
			</linearGradient>
			<polygon class="st15" points="230.74,135.94 14.17,141.99 14.25,143.19 230.83,137.14 230.74,135.94 			"/>
		</g>
	</g>
</g>
<g id="Rectangle_5_1_" class="st1">
	<g id="Rectangle_5_3_">
		<g>
			<rect x="192.07" y="66.37" class="st16" width="33.88" height="32.67"/>
		</g>
	</g>
</g>
<g id="Rectangle_2_1_" class="st1">
	<g id="Rectangle_2">
		<g>
			<polygon class="st17" points="160.61,95.4 160.61,124.44 217.48,124.44 217.48,90.56 			"/>
		</g>
	</g>
</g>
<g id="Rectangle_3_1_" class="st1">
	<g id="Rectangle_3_3_">
		<g>
			<polygon class="st18" points="51.72,65.16 51.72,94.19 107.37,94.19 107.37,59.11 			"/>
		</g>
	</g>
</g>
<g id="Rectangle_4_1_" class="st1">
	<g id="Rectangle_4">
		<g>
			<polygon class="st19" points="79.55,122.02 79.55,140.17 117.05,140.17 117.05,120.81 			"/>
		</g>
	</g>
</g>
<g id="Rectangle_6_1_" class="st0">
	<g id="Rectangle_6_3_" class="st20">
		<g>
			<polygon class="st16" points="108.58,130.49 108.58,157.11 160.61,157.11 160.61,126.86 			"/>
		</g>
	</g>
</g>
<g id="Rectangle_1_copy_1_" class="st1">
	<g id="Rectangle_1_copy">
		<g>
			
				<linearGradient id="SVGID_9_" gradientUnits="userSpaceOnUse" x1="16.5886" y1="45.1799" x2="235.6244" y2="45.1799" gradientTransform="matrix(1 0 0 1 0 -7)">
				<stop  offset="0" style="stop-color:#7873B8"/>
				<stop  offset="1" style="stop-color:#5B5D7B"/>
			</linearGradient>
			<path class="st21" d="M231.65,13.62c0,0-60.55,8.57-116.66,16.51c-48.42,6.85-93.53,13.24-93.53,13.24l-4.88,15.6l4.88,3.76
				l214.15-24.2V16.76L231.65,13.62z"/>
		</g>
	</g>
</g>
<g id="Shape_8_copy_1_" class="st1">
	<g id="Shape_8_copy_3_" class="st22">
		<g>
			
				<linearGradient id="SVGID_10_" gradientUnits="userSpaceOnUse" x1="235.2859" y1="31.206" x2="229.7513" y2="40.7922" gradientTransform="matrix(1 0 0 1 0 -7)">
				<stop  offset="0" style="stop-color:#7873B8;stop-opacity:0"/>
				<stop  offset="0.0582" style="stop-color:#706CAA;stop-opacity:0.0582"/>
				<stop  offset="0.1958" style="stop-color:#615F8F;stop-opacity:0.1958"/>
				<stop  offset="0.3454" style="stop-color:#56557A;stop-opacity:0.3454"/>
				<stop  offset="0.5113" style="stop-color:#4D4E6B;stop-opacity:0.5113"/>
				<stop  offset="0.7059" style="stop-color:#484962;stop-opacity:0.7059"/>
				<stop  offset="1" style="stop-color:#47485F"/>
			</linearGradient>
			<polygon class="st23" points="229.95,21.13 230.41,34.17 235.25,36.59 236,25.97 			"/>
		</g>
	</g>
</g>
<g id="Rectangle_1_1_" class="st1">
	<g id="Rectangle_1">
		<g>
			<polygon class="st5" points="15.42,39.75 16.59,58.98 230.78,34.91 230.78,13.13 			"/>
		</g>
	</g>
</g>
<g id="Ellipse_3_1_" class="st1">
	<g id="Ellipse_3_3_">
		<g>
			<path class="st16" d="M179.97,21.6c-2,0-3.63,2.71-3.63,6.05c0,3.34,1.63,6.05,3.63,6.05c2,0,3.63-2.71,3.63-6.05
				C183.6,24.31,181.97,21.6,179.97,21.6z"/>
		</g>
	</g>
	<path class="st24" d="M176.21,30.29c-1.69-5.86,1.02-7.6,1.02-7.6s-1.47,3.19-0.31,7.01c1.44,4.73,3.65,4,3.65,4
		S177.5,34.75,176.21,30.29z"/>
</g>
<g id="Ellipse_3_copy_1_" class="st1">
	<g id="Ellipse_3_copy">
		<g>
			<path class="st16" d="M40.22,40.96c-1.67,0-3.02,2.17-3.02,4.84c0,2.67,1.35,4.84,3.02,4.84c1.67,0,3.02-2.17,3.02-4.84
				C43.25,43.12,41.89,40.96,40.22,40.96z"/>
		</g>
	</g>
</g>
<g id="Ellipse_4_1_" class="st1">
	<linearGradient id="SVGID_11_" gradientUnits="userSpaceOnUse" x1="169.7892" y1="16.1546" x2="188.938" y2="16.1546">
		<stop  offset="0" style="stop-color:#6B699C"/>
		<stop  offset="0.4949" style="stop-color:#767896"/>
		<stop  offset="1" style="stop-color:#706DA7"/>
	</linearGradient>
	<path class="st25" d="M183.36,27.56c-0.88,0.61-1.85,1.02-2.87,1.2c-0.37,0.06-0.75,0.1-1.13,0.1c-5.01,0-9.07-5.69-9.07-12.7
		s4.06-12.7,9.07-12.7c5.01,0,9.07,5.69,9.07,12.7c0,0.89-0.06,1.75-0.19,2.59"/>
</g>
<g id="Ellipse_4_copy_1_" class="st1">
	<path class="st24" d="M37.11,47.84c-1.69-5.86,2.02-6.6,2.02-6.6s-2.47,2.19-1.31,6.01c1.44,4.73,3.65,3,3.65,3
		S38.4,52.3,37.11,47.84z"/>
	<linearGradient id="SVGID_12_" gradientUnits="userSpaceOnUse" x1="29.4397" y1="34.3033" x2="48.5883" y2="34.3033">
		<stop  offset="0" style="stop-color:#6B699C"/>
		<stop  offset="0.4949" style="stop-color:#767896"/>
		<stop  offset="1" style="stop-color:#706DA7"/>
	</linearGradient>
	<path class="st26" d="M43.01,45.71c-1.21,0.83-2.56,1.3-4,1.3c-5.01,0-9.07-5.69-9.07-12.7S34,21.6,39.01,21.6
		c5.01,0,9.07,5.69,9.07,12.7c0,0.89-0.06,1.75-0.19,2.59"/>
</g>
<g id="Shape_2_1_" class="st1">
</g>
<g id="Shape_1_1_" class="st1">
</g>
<g id="Shape_3_1_" class="st1">
</g>
<g id="Shape_4_1_" class="st1">
</g>
<g id="Shape_5_2_" class="st1">
</g>
<g id="Shape_6_2_" class="st1">
	<g id="Shape_7_3_" class="st1">
		<text transform="matrix(0.9989 -0.0472 0.0472 0.9989 35.9209 131.4697)" class="st22"><tspan x="0" y="0" class="st27 st28 st29 st30">2</tspan><tspan x="37.53" y="0" class="st27 st28 st31 st30">0</tspan><tspan x="77.65" y="0" class="st27 st28 st32 st30">2</tspan><tspan x="117.78" y="0" class="st27 st28 st33 st30">0</tspan></text>
		<text transform="matrix(0.9988 -0.0494 0.0494 0.9988 33.9297 129.8668)"><tspan x="0" y="0" class="st34 st28 st29 st30">2</tspan><tspan x="37.53" y="0" class="st34 st28 st31 st30">0</tspan><tspan x="77.65" y="0" class="st34 st28 st32 st30">2</tspan><tspan x="117.78" y="0" class="st34 st28 st33 st30">0</tspan></text>
		<g id="Shape_6_4_">
			<g>
				<linearGradient id="SVGID_13_" gradientUnits="userSpaceOnUse" x1="187.6566" y1="171.4537" x2="187.6566" y2="237.0696">
					<stop  offset="0" style="stop-color:#FFFFFF;stop-opacity:0"/>
					<stop  offset="0.0308" style="stop-color:#FFF5FE;stop-opacity:0.0308"/>
					<stop  offset="0.116" style="stop-color:#FFDFFD;stop-opacity:0.116"/>
					<stop  offset="0.2165" style="stop-color:#FFCEFC;stop-opacity:0.2165"/>
					<stop  offset="0.3409" style="stop-color:#FFC3FC;stop-opacity:0.3409"/>
					<stop  offset="0.5155" style="stop-color:#FFBCFB;stop-opacity:0.5155"/>
					<stop  offset="1" style="stop-color:#FFBAFB"/>
				</linearGradient>
				<path class="st35" d="M215.64,172.94l-3.88,52.58c-0.01,0.1-1.1,10.06-23.58,10.06c-0.93,0-1.89-0.02-2.87-0.05
					c-19.75-0.69-25.03-11.47-25.75-13.18v-49.4H215.64 M217.24,171.45h-59.17v51.17c0,0,4.78,13.61,27.18,14.39
					c1.01,0.04,1.98,0.05,2.92,0.05c24.41,0,25.06-11.44,25.06-11.44L217.24,171.45L217.24,171.45z"/>
			</g>
		</g>
		<g id="Ellipse_2">
			<g>
				<path class="st36" d="M199.17,167.02c0-9.48,0.02-12.11-15.75-12.11c-15.77,0-17.57,5.06-23.02,8.48
					c-8.03,5.03,7.95,15.76,23.72,15.76C199.9,179.14,199.17,176.49,199.17,167.02z"/>
			</g>
		</g>
		<g id="Ellipse_2_copy_13">
			<g>
				<path class="st37" d="M180.99,156.12c-1.08,0-0.17-0.07-1.21,0c-10.49,0.69-20.58-2.31-20.58,4.31
					c0,7.28,9.73,12.64,21.73,12.64c12,0,20.65-5.36,20.65-12.64C201.58,153.15,192.99,156.12,180.99,156.12z"/>
			</g>
		</g>
		<g id="Shape_14">
			<g>
				<path class="st38" d="M177.87,160.14c-4.12,0-9.73-0.92-13.03-5.33c-3.87-5.16-3.85-6.28-3.82-7.7
					c0.02-0.84,0.04-1.79-0.54-3.52c-0.82-2.44,0.65-4.17,2.19-6.01c1.26-1.49,2.55-3.03,2.63-5.01c0.09-2.39-1.65-3.66-3.34-4.9
					c-1.51-1.11-2.95-2.15-3.06-3.95c-0.12-1.88,0.69-3.44,1.54-5.09c0.7-1.36,1.43-2.76,1.65-4.41l0.01-0.06l-0.01-0.06
					c-0.27-2.36-0.86-4.29-1.38-5.99c-1.21-3.93-1.88-6.1,3-8.8c0.38-0.03,0.73-0.04,1.05-0.04c3.75,0,4.01,1.75,4.39,4.39
					c0.28,1.96,0.61,4.17,2.48,6.05c1.22,1.22,2.94,1.4,4.6,1.58c2,0.21,3.88,0.4,4.91,2.31c0.67,1.24,0.5,3.28,0.33,5.26
					c-0.18,2.16-0.37,4.39,0.47,5.93c1.32,2.44,4.22,3.09,7.03,3.73c4.86,1.1,9.45,2.13,8.11,11.15
					c-2.16,14.53-13.3,19.82-13.47,19.9c0,0,0,0,0,0C183.58,159.57,181.09,160.14,177.87,160.14
					C177.87,160.14,177.87,160.14,177.87,160.14z"/>
			</g>
			<g>
				<path class="st39" d="M164.78,99.78c3.32,0,3.51,1.32,3.9,3.96c0.28,1.93,0.63,4.34,2.62,6.33c1.34,1.35,3.15,1.54,4.91,1.72
					c1.94,0.2,3.62,0.38,4.52,2.05c0.6,1.11,0.43,3.08,0.27,4.98c-0.19,2.23-0.38,4.53,0.53,6.21c1.42,2.64,4.44,3.32,7.36,3.98
					c4.83,1.09,9,2.03,7.72,10.59c-2.03,13.62-12.08,18.96-13.1,19.47c-0.49,0.11-2.76,0.56-5.63,0.56c-4.01,0-9.45-0.89-12.63-5.13
					c-3.77-5.03-3.75-6.07-3.71-7.38c0.02-0.84,0.04-1.88-0.56-3.69c-0.73-2.18,0.58-3.73,2.1-5.53c1.31-1.55,2.67-3.16,2.75-5.31
					c0.1-2.65-1.83-4.07-3.54-5.32c-1.48-1.08-2.76-2.02-2.86-3.58c-0.11-1.74,0.67-3.24,1.49-4.83c0.72-1.4,1.47-2.84,1.7-4.57
					l0.02-0.12l-0.01-0.12c-0.27-2.4-0.87-4.36-1.4-6.08c-1.2-3.88-1.75-5.69,2.67-8.17C164.2,99.79,164.5,99.78,164.78,99.78
					 M164.78,98.78c-0.37,0-0.77,0.02-1.2,0.05c-7.57,4.14-2.86,7.48-1.97,15.34c-0.47,3.51-3.43,5.96-3.2,9.59
					c0.26,4.14,6.56,4.64,6.4,8.8s-6.4,6.4-4.8,11.19c1.6,4.8-1.63,3.29,4.42,11.36c3.4,4.53,9.09,5.53,13.43,5.53
					c3.39,0,5.96-0.61,5.96-0.61s11.52-5.25,13.76-20.28c2.24-15.03-11.92-9.13-15.19-15.19c-1.52-2.82,0.69-8.44-0.8-11.19
					c-2.06-3.82-7.11-1.51-9.59-4C167.78,105.12,171.94,98.78,164.78,98.78L164.78,98.78z"/>
			</g>
		</g>
		<g id="Shape_7_6_">
			<g>
				<path class="st38" d="M210.76,205.19c-2.3-0.08-2.67-1.12-3.24-2.7c-0.19-0.53-0.4-1.13-0.71-1.72
					c-0.44-0.84-1.36-1.58-2.25-2.29c-0.73-0.58-1.48-1.19-1.75-1.71l-0.05-0.1l-0.09-0.07c-5.7-4.39-4.3-6.93-2.94-9.38
					c0.83-1.52,1.7-3.08,0.67-4.86c-1.22-2.12-3.35-3.26-5.81-4.57c-2.54-1.36-5.41-2.89-7.83-5.89c-2.72-3.37-3.05-8.23-3.08-9.66
					l14.36-2.44c0.01,0,1.46-0.16,3.55-0.16c5.74,0,15.59,1.13,17.08,8.67c0.97,4.92,0.01,7.48-1,10.19
					c-0.63,1.67-1.27,3.4-1.4,5.68c-0.15,2.67,0.57,4.6,1.09,6.01c0.31,0.83,0.55,1.48,0.51,1.97c-0.06,0.68-0.56,1.32-1.19,2.13
					c-0.7,0.9-1.49,1.91-1.98,3.35c-0.34,0.98-0.46,2.07-0.58,3.12c-0.32,2.74-0.64,4.42-3.14,4.42L210.76,205.19z"/>
			</g>
			<g>
				<path class="st39" d="M201.58,160.16c5.59,0,15.17,1.07,16.59,8.27c0.94,4.78,0.01,7.27-0.98,9.92
					c-0.64,1.71-1.3,3.47-1.43,5.82c-0.16,2.78,0.58,4.76,1.12,6.21c0.27,0.74,0.51,1.38,0.48,1.75c-0.05,0.53-0.53,1.15-1.09,1.87
					c-0.69,0.88-1.54,1.98-2.06,3.49c-0.35,1.03-0.48,2.15-0.61,3.22c-0.33,2.89-0.65,3.98-2.64,3.98c-0.06,0-0.12,0-0.19,0
					c-1.96-0.07-2.22-0.79-2.79-2.37c-0.19-0.54-0.42-1.16-0.74-1.78c-0.49-0.94-1.45-1.7-2.38-2.45c-0.66-0.52-1.4-1.12-1.62-1.55
					l-0.1-0.2l-0.18-0.14c-5.36-4.13-4.18-6.27-2.81-8.75c0.86-1.56,1.84-3.33,0.67-5.35c-1.3-2.25-3.58-3.47-6.01-4.76
					c-2.49-1.33-5.32-2.84-7.67-5.76c-2.4-2.97-2.87-7.17-2.96-8.93l13.89-2.37C198.29,160.29,199.66,160.16,201.58,160.16
					 M201.58,159.16c-2.17,0-3.63,0.16-3.63,0.16l-14.77,2.52c0,0-0.16,6.23,3.2,10.39c4.78,5.92,11.19,6.24,13.59,10.39
					c2.4,4.16-7.18,7.01,2.4,14.39c0.66,1.27,3.24,2.54,4,4c1.19,2.27,0.87,4.56,4.38,4.68c0.08,0,0.15,0,0.22,0
					c4.33,0,3.1-4.67,4.19-7.88c0.92-2.7,3.05-3.93,3.2-5.6c0.14-1.55-1.84-3.81-1.6-8c0.32-5.73,4.02-7.78,2.4-15.99
					C217.58,160.26,207.22,159.16,201.58,159.16L201.58,159.16z"/>
			</g>
		</g>
		<g id="Shape_8_6_">
			<g>
				<path class="st40" d="M208.76,169.83c-3.29-7.68-11.63-10.55-11.63-10.55l-0.73,0.31c0,0,8.45,3.79,11.56,11.04
					c3.98,9.29,2.83,22.55,2.83,22.55l0.73-0.31C211.53,192.86,212.62,178.84,208.76,169.83z"/>
			</g>
		</g>
		<g id="Shape_9">
			<g>
				
					<linearGradient id="SVGID_14_" gradientUnits="userSpaceOnUse" x1="174.9621" y1="115.0465" x2="231.6037" y2="115.0465" gradientTransform="matrix(1 0 0 1 8 4)">
					<stop  offset="0" style="stop-color:#8BD9BB"/>
					<stop  offset="1" style="stop-color:#0DACC1"/>
				</linearGradient>
				<path class="st41" d="M235.5,78.87c-3.2-3.04-9.15-1.79-12.35,2.21c-4.16,4.8-1.22,6.28-7.2,10.39
					c-3.73,2.57-12.3,2.01-14.39,7.2c-1.73,4.28,0.38,12.39-4,15.99c-5.68,4.67-13.57,6.13-14.39,12.79
					c-0.72,5.86,0.5,14.84,2.23,19.65c0.52,1.46-0.13,10.18,0.44,11.44c2.24,4.9,5.78,0.71,5.78,0.71s18.1-2.21,26.74-9.41
					c10.71-10.39-2.88-20.79,2.4-23.19c1.78-4.38,8.08-3.61,11.99-8.8c3.74-6.46-3.48-12.76-3.2-17.59c0.35-5.84,5.92-4.64,8.8-9.59
					C241.22,85.72,238.7,81.91,235.5,78.87z"/>
			</g>
		</g>
		<g id="Shape_10">
			<g>
				<path class="st42" d="M226.78,90.91c0,0-14.26,16.67-24.44,34.58c-9.8,17.25-15.54,35.78-15.54,35.78l0.7,0.39
					c0,0,5.97-18.35,15.64-35.38c10.3-18.12,24.33-34.98,24.33-34.98L226.78,90.91z"/>
			</g>
		</g>
		<g id="Shape_11">
			<g>
				<path class="st38" d="M163.29,197.77c-0.57,0-1.22-0.05-1.93-0.15c-5.09-1.43-4.48-4.58-3.72-8.56
					c0.33-1.73,0.68-3.53,0.53-5.28l-0.01-0.08l-0.03-0.08c-0.73-1.65-2.43-2.94-4.06-4.19c-1.87-1.43-3.64-2.78-3.89-4.48
					c-0.36-2.39,1.13-3.97,2.7-5.64c1.27-1.34,2.58-2.73,2.89-4.6c0.35-2.09,0.49-2.25,1.12-3.03c0.53-0.65,1.33-1.63,2.72-4.1
					c0.75-1.32,4.26-2,5.62-2.17l10.85,1.21l9.28,2.74c-0.05,0.08-0.1,0.16-0.15,0.24c-2.11,4.05-4.33,4.92-6.3,5.68
					c-1.28,0.5-2.49,0.97-3.28,2.29c-0.93,1.54-0.51,3.2-0.1,4.8c0.37,1.45,0.71,2.81,0.08,4.02c-0.75,1.45-2.14,2.33-3.6,3.26
					c-1.33,0.84-2.7,1.71-3.54,3.05c-2.05,1.92-1.74,5.05-1.44,8.08c0.24,2.45,0.47,4.76-0.63,5.98
					C165.8,197.44,164.78,197.77,163.29,197.77z M192.57,161.98c-0.4,0-1.18-0.53-1.94-1.08l2.29,0.67
					c-0.08,0.11-0.16,0.22-0.23,0.35C192.65,161.97,192.63,161.98,192.57,161.98L192.57,161.98z"/>
			</g>
			<g>
				<path class="st39" d="M165.25,155.91l10.7,1.19l8.68,2.55c-1.98,3.64-4.05,4.44-5.88,5.16c-1.3,0.51-2.65,1.03-3.53,2.5
					c-1.03,1.72-0.57,3.56-0.16,5.18c0.34,1.35,0.67,2.63,0.13,3.67c-0.69,1.33-2.02,2.17-3.43,3.07c-1.36,0.86-2.76,1.75-3.66,3.15
					c-2.18,2.1-1.85,5.47-1.55,8.45c0.23,2.34,0.45,4.54-0.51,5.6c-0.52,0.57-1.42,0.85-2.76,0.85c-0.53,0-1.13-0.05-1.79-0.14
					c-4.44-1.26-4.2-3.61-3.36-7.98c0.34-1.77,0.69-3.59,0.54-5.42l-0.01-0.17l-0.07-0.16c-0.78-1.76-2.53-3.09-4.22-4.38
					c-1.79-1.37-3.48-2.66-3.7-4.15c-0.33-2.15,1.02-3.58,2.57-5.22c1.32-1.4,2.68-2.84,3.02-4.86c0.33-1.96,0.42-2.07,1.02-2.8
					c0.54-0.66,1.35-1.66,2.77-4.17C160.59,156.88,163.43,156.13,165.25,155.91 M165.25,154.9c0,0-5.01,0.56-6.06,2.42
					c-3.2,5.67-3.24,3.41-3.9,7.29c-0.67,3.93-6.3,5.72-5.6,10.39c0.53,3.5,6.51,5.46,8,8.8c0.46,5.63-4.39,12.06,3.61,14.3
					c0.74,0.11,1.41,0.16,2,0.16c8.76,0,1.09-11.17,5.59-15.26c1.63-2.67,5.65-3.42,7.2-6.4c1.46-2.8-1.62-6.12,0-8.8
					c1.8-2.99,5.98-1.06,9.59-8c0.23-0.44,0.56-0.61,0.95-0.61c0.03,0,0.06,0,0.09,0l-10.56-3.11L165.25,154.9L165.25,154.9z
					 M186.71,159.22l0.91,0.27C187.29,159.34,186.98,159.24,186.71,159.22L186.71,159.22z M187.61,159.49
					c1.67,0.78,3.83,2.99,4.95,2.99c0.23,0,0.41-0.09,0.54-0.3c0.24-0.4,0.49-0.66,0.74-0.85L187.61,159.49L187.61,159.49z
					 M194.77,161c-0.3,0-0.61,0.09-0.92,0.32l2.89,0.85C196.74,162.17,195.85,161,194.77,161L194.77,161z"/>
			</g>
		</g>
		<g id="Shape_12">
			<g>
				<path class="st37" d="M164.08,170.65c-2.58,11.11-2.78,23.08-2.78,23.08l0.77,0.22c0,0,0.52-12.56,3.61-23.3
					c2.89-10.02,16.52-10.9,16.52-10.9l3.58-1.21C185.78,158.54,166.9,158.54,164.08,170.65z"/>
			</g>
		</g>
		<g id="Shape_13">
			<g>
				<path class="st40" d="M173.17,125.42c-3.19-10.38-9.21-20.91-9.21-20.91l-0.76,0.24c0,0,5.07,9.91,8.38,20.67
					c3.08,10,11.85,29.49,11.85,29.49h1.21C184.63,154.9,176.37,135.82,173.17,125.42z"/>
			</g>
		</g>
		<g id="Shape_3">
			<g>
				<linearGradient id="SVGID_15_" gradientUnits="userSpaceOnUse" x1="81.6419" y1="197.023" x2="111.8821" y2="197.023">
					<stop  offset="0" style="stop-color:#8BD9BB"/>
					<stop  offset="1" style="stop-color:#0DACC1"/>
				</linearGradient>
				<path class="st43" d="M110.26,181.72c-2.54-4.88-17.8,3.26-23.66,11.43c-5.3,7.39-6.32,15.39-3.2,18.39
					c8.32,8,9.77-7.28,13.59-12.79C103.89,188.79,116.34,193.39,110.26,181.72z"/>
			</g>
		</g>
		<g id="Shape_2">
			<g>
				
					<linearGradient id="SVGID_16_" gradientUnits="userSpaceOnUse" x1="94.844" y1="211.5883" x2="80.2675" y2="197.0118" gradientTransform="matrix(1 0 0 1 8 1)">
					<stop  offset="0" style="stop-color:#8BD9BB"/>
					<stop  offset="1" style="stop-color:#0DACC1"/>
				</linearGradient>
				<path class="st44" d="M103.76,186.08l-0.75-0.27c0,0-12.72,6.67-16.41,16.93c-3.5,9.72,2.02,23.05,2.02,23.05l0.75,0.27
					c0,0-4.76-12.58-1.18-22.52C91.81,193.49,103.76,186.08,103.76,186.08z"/>
			</g>
		</g>
		<g id="Shape_4">
			<g>
				
					<linearGradient id="SVGID_17_" gradientUnits="userSpaceOnUse" x1="83.5854" y1="214.65" x2="107.2154" y2="214.65" gradientTransform="matrix(1 0 0 1 8 -1)">
					<stop  offset="0" style="stop-color:#8BD9BB"/>
					<stop  offset="1" style="stop-color:#0DACC1"/>
				</linearGradient>
				<path class="st45" d="M100.55,208.81c-5.52,1.61-11.15,5.22-8.11,10.01c1.47,2.32,5.42-1.9,10.51-3.62
					c10.22-3.1,11.03,2.24,11.99-0.8C117.02,206.89,106.62,207.04,100.55,208.81z"/>
			</g>
		</g>
		<g id="Shape_5_1_">
			<g>
				
					<linearGradient id="SVGID_18_" gradientUnits="userSpaceOnUse" x1="92.553" y1="226.1171" x2="92.553" y2="211.0843" gradientTransform="matrix(1 0 0 1 6 -1)">
					<stop  offset="0" style="stop-color:#8BD9BB"/>
					<stop  offset="1" style="stop-color:#0DACC1"/>
				</linearGradient>
				<path class="st46" d="M107.91,210.09c0,0-7.64-0.16-12.55,3.52c-4.68,3.51-6.64,10.87-6.64,10.87l0.48,0.64
					c0,0,3.04-7.18,7.76-10.71c4.88-3.66,11.43-3.68,11.43-3.68L107.91,210.09z"/>
			</g>
		</g>
	</g>
	<linearGradient id="SVGID_19_" gradientUnits="userSpaceOnUse" x1="-28.7582" y1="229.3338" x2="221.9918" y2="229.3338">
		<stop  offset="0" style="stop-color:#FFFFFF;stop-opacity:0"/>
		<stop  offset="1" style="stop-color:#FFBAFB"/>
	</linearGradient>
	<path class="st47" d="M-28.29,246.43c14.35-41.42,4.21-19.84,65.92-26.38c23.08-2.45,11.65,11.17,37.23,9.39
		c20.93-3.46,36.25-16.41,59.95-16.87c18.45,0.17,23.26,10.05,29.66,16.98c13.56,14.68,54.6-2.59,57.02,11.93"/>
</g>
</svg>
