<?xml version="1.0" encoding="utf-8"?>
<!-- Generator: Adobe Illustrator 21.1.0, SVG Export Plug-In . SVG Version: 6.00 Build 0)  -->
<svg version="1.1" id="Layer_1" xmlns="http://www.w3.org/2000/svg" xmlns:xlink="http://www.w3.org/1999/xlink" x="0px" y="0px"
	 viewBox="0 0 2526 972" style="enable-background:new 0 0 2526 972;" xml:space="preserve">
<style type="text/css">
	.st0{fill:none;}
	.st1{fill:#947CF6;}
	.st2{fill:url(#SVGID_1_);}
	.st3{fill:url(#SVGID_2_);}
	.st4{fill:#FFFFFF;}
	.st5{fill:url(#SVGID_3_);}
	.st6{fill:url(#SVGID_4_);}
	.st7{fill:url(#SVGID_5_);}
	.st8{fill:#968EFF;}
	.st9{fill:url(#SVGID_6_);}
	.st10{fill:url(#SVGID_7_);}
	.st11{fill:#373956;}
</style>
<g>
	<path class="st0" d="M1389.7,464.6c0.1,1.6,0.2,3.2,0.2,4.9C1389.9,467.8,1389.8,466.2,1389.7,464.6z"/>
	<path class="st0" d="M1182.5,257.4c1.5,0.1,2.9,0.2,4.4,0.3C1185.4,257.6,1184,257.5,1182.5,257.4z"/>
	<path class="st0" d="M1188.7,257.9c1.6,0.1,3.2,0.3,4.8,0.5C1191.9,258.2,1190.3,258,1188.7,257.9z"/>
	<path class="st0" d="M1388.3,449.3c-1.1-9.1-2.7-18-4.9-26.8l0,0C1385.6,431.2,1387.2,440.2,1388.3,449.3z"/>
	<path class="st0" d="M1200.7,259.3c6.4,1,12.7,2.2,18.9,3.7C1213.4,261.5,1207.1,260.3,1200.7,259.3z"/>
	<path class="st0" d="M1194.8,258.5c2,0.2,3.9,0.5,5.9,0.8C1198.7,259,1196.7,258.8,1194.8,258.5z"/>
	<path class="st0" d="M1259,412.2c1.6,12.6,7.8,20.4,14.1,25.1c6.3,4.7,18.8,11,26.7,11c3.8,0,8.4,0.4,19.6-2.1
		c-9.2,1.8-13.3,1.5-16.8,1.5c-8,0-20.8-6.4-27.2-11.2c-6.4-4.8-12.8-12.8-14.4-25.6c-1.5-12.2-11.8-105.9-36.3-146.6
		c-1.7-0.4-3.3-0.9-5-1.3c0.1,0.1,0.1,0.1,0.2,0.2C1246.5,299.3,1257.5,399.7,1259,412.2z"/>
	<path class="st0" d="M1390,471.4c0.1,2.2,0.1,4.5,0.1,6.8C1390.1,475.9,1390,473.6,1390,471.4z"/>
	<path class="st0" d="M1389.2,457.6c0.1,1.6,0.3,3.3,0.4,4.9C1389.5,460.9,1389.3,459.2,1389.2,457.6z"/>
	<path class="st0" d="M1388.4,450.1c0.2,1.9,0.4,3.8,0.6,5.7C1388.9,453.9,1388.6,452,1388.4,450.1z"/>
	<path class="st0" d="M1168,256.9c2.1,0,4.2,0,6.2,0.1C1172.2,257,1170.1,256.9,1168,256.9z"/>
	<path class="st0" d="M1176.1,257.1c1.5,0.1,3,0.1,4.4,0.2C1179.1,257.2,1177.6,257.1,1176.1,257.1z"/>
	<path class="st1" d="M1389.1,423.7c-0.6,0.2-1.1,0.4-1.7,0.6c-1.5,0.6-3,1.1-4.4,1.7c2,8.2,3.5,16.6,4.6,25.1
		c0,0.3,0.1,0.5,0.1,0.8c0.2,1.8,0.4,3.6,0.6,5.3c0.1,0.6,0.1,1.1,0.1,1.7c0.1,1.5,0.2,3.1,0.3,4.6c0,0.6,0.1,1.3,0.1,1.9
		c0.1,1.5,0.2,3,0.2,4.6c0,0.6,0.1,1.2,0.1,1.8c0.1,2.1,0.1,4.2,0.1,6.3c0,63.3-26.6,120.4-69.2,160.7c0.1,0.4,0.1,0.8,0.2,1.2
		c0.2,1.5,0.5,3,0.7,4.5c8.7,53.4,28.5,63.4,41.5,63.8c65.3-55.3,106.8-137.8,106.8-230.1c0-13.1-0.8-26-2.5-38.6
		C1454.7,424.5,1430.8,407.8,1389.1,423.7z"/>
	<linearGradient id="SVGID_1_" gradientUnits="userSpaceOnUse" x1="928.4595" y1="273.264" x2="1224.6448" y2="273.264">
		<stop  offset="0" style="stop-color:#0BABC1"/>
		<stop  offset="0.2759" style="stop-color:#34A8C5"/>
		<stop  offset="0.5957" style="stop-color:#5DA5C9"/>
		<stop  offset="0.8482" style="stop-color:#77A3CB"/>
		<stop  offset="1" style="stop-color:#80A2CC"/>
	</linearGradient>
	<path class="st2" d="M972.5,360.5c0.6,0.2,1.1,0.5,1.6,0.7c1.6,0.7,3.2,1.4,4.7,2.1c38.8-63.8,109-106.5,189.2-106.5
		c2.1,0,4.2,0,6.2,0.1c0.6,0,1.2,0,1.8,0.1c1.5,0.1,3,0.1,4.4,0.2c0.7,0,1.3,0.1,2,0.1c1.5,0.1,2.9,0.2,4.4,0.3
		c0.6,0.1,1.2,0.1,1.8,0.2c1.6,0.1,3.2,0.3,4.8,0.5c0.4,0,0.9,0.1,1.3,0.1c2,0.2,3.9,0.5,5.9,0.8c0,0,0.1,0,0.1,0
		c6.4,0.9,12.7,2.2,18.9,3.7h0l0,0c1.7,0.4,3.3,0.8,5,1.3c-1.2-2-2.5-3.9-3.7-5.6c-0.1-0.1-0.1-0.1-0.2-0.2
		c-23.9-32.4-46.7-70.9-113.9-75.3c-72.2,14.9-134.9,55.6-178.1,112C926.9,314.3,932.4,342.5,972.5,360.5z"/>
	<linearGradient id="SVGID_2_" gradientUnits="userSpaceOnUse" x1="1307.8043" y1="263.4267" x2="1295.788" y2="506.1559">
		<stop  offset="0" style="stop-color:#CF90FA"/>
		<stop  offset="0.467" style="stop-color:#C688FB"/>
		<stop  offset="1" style="stop-color:#B57BFD"/>
	</linearGradient>
	<path class="st3" d="M1275.4,436.5c6.4,4.8,19.2,11.2,27.2,11.2c3.5,0,7.6,0.3,16.8-1.5c11.7-2.6,30.6-8.3,63.4-20.8
		c-19.2-78.5-80.3-140.6-158.3-161.2c24.5,40.7,34.8,134.4,36.3,146.6C1262.6,423.7,1269,431.7,1275.4,436.5z"/>
	<path class="st4" d="M1383.5,422.5L1383.5,422.5c0-0.2-0.1-0.4-0.1-0.6C1383.4,422.1,1383.4,422.3,1383.5,422.5z"/>
	<linearGradient id="SVGID_3_" gradientUnits="userSpaceOnUse" x1="1106.8628" y1="308.2099" x2="1466.7969" y2="308.2099">
		<stop  offset="0" style="stop-color:#7B6AC5"/>
		<stop  offset="0.3999" style="stop-color:#7A61CC"/>
		<stop  offset="1" style="stop-color:#784ADC"/>
	</linearGradient>
	<path class="st5" d="M1220.8,258.4c0.1,0.1,0.1,0.1,0.2,0.2c1.3,1.7,2.5,3.6,3.7,5.6c78,20.6,139.1,82.6,158.3,161.2h0l0,0
		c0,0.2,0.1,0.4,0.1,0.5c1.5-0.5,2.9-1.1,4.4-1.7c0.6-0.2,1.1-0.4,1.7-0.6c41.7-15.9,65.5,0.8,77.7,15.8
		c-19-148.1-145.5-262.6-298.8-262.6c-21,0-41.4,2.1-61.2,6.2C1174.1,187.6,1196.8,226,1220.8,258.4z"/>
	<polygon class="st4" points="1383.3,421.9 1383.3,421.9 1383.3,421.9 	"/>
	<linearGradient id="SVGID_4_" gradientUnits="userSpaceOnUse" x1="944.4389" y1="259.5891" x2="920.4063" y2="540.7705">
		<stop  offset="0" style="stop-color:#138C63"/>
		<stop  offset="0.1623" style="stop-color:#16856C"/>
		<stop  offset="0.6848" style="stop-color:#1C7486"/>
		<stop  offset="1" style="stop-color:#1F6D8F"/>
	</linearGradient>
	<path class="st6" d="M867.8,502.8c30.4,44,58.2,67.5,106.5,91.6c0.2,0.1,0.5,0.2,0.7,0.4c0.3-2,0.8-4,1.3-6.1
		c-18.8-32.5-29.6-70.3-29.6-110.5c0-42,11.7-81.3,32.1-114.8c-1.5-0.7-3.1-1.4-4.7-2.1c-0.5-0.2-1.1-0.5-1.6-0.7
		c-40.2-18-45.6-46.2-43.8-65.4c-38.9,50.7-62,114.2-62,183C866.8,486.5,867.2,494.7,867.8,502.8z"/>
	<linearGradient id="SVGID_5_" gradientUnits="userSpaceOnUse" x1="1016.4985" y1="390.4819" x2="985.2562" y2="541.8872">
		<stop  offset="0" style="stop-color:#0BABC1"/>
		<stop  offset="0.3363" style="stop-color:#43BFBE"/>
		<stop  offset="0.6305" style="stop-color:#6CCEBD"/>
		<stop  offset="0.8612" style="stop-color:#86D7BB"/>
		<stop  offset="1" style="stop-color:#8FDABB"/>
	</linearGradient>
	<path class="st7" d="M1062.1,431.9c-1.1-7.9-5.7-21.5-11.3-27.2c-5.5-5.5-12.1-14.1-71.8-41.3c-20.3,33.5-32.1,72.7-32.1,114.8
		c0,40.3,10.8,78,29.6,110.5c11.9-46.2,70.2-118.8,77.7-128.4C1062.1,450,1063.2,439.8,1062.1,431.9z"/>
	<path class="st8" d="M1320.9,644.4c-0.2-1.5-0.5-2.9-0.7-4.5c-0.1-0.4-0.1-0.8-0.2-1.2c-39.6,37.5-93.1,60.5-152,60.5
		c-78,0-146.6-40.4-185.9-101.3c-1.1-0.4-2.1-0.8-3.1-1.3c-1.3-0.6-2.6-1.3-3.9-1.9c-0.1,0.5-0.2,0.9-0.2,1.4c0,0.1,0,0.2,0,0.3
		c-5.9,39.4-16.9,82.2,26,132.2c47.9,32,105.4,50.7,167.3,50.7c74.1,0,142-26.8,194.4-71.2C1349.5,707.8,1329.7,697.8,1320.9,644.4z
		"/>
	<linearGradient id="SVGID_6_" gradientUnits="userSpaceOnUse" x1="1181.4362" y1="540.4985" x2="1109.3384" y2="725.5495">
		<stop  offset="0" style="stop-color:#FFBAFB"/>
		<stop  offset="0.6001" style="stop-color:#E8BBFD"/>
		<stop  offset="1" style="stop-color:#DFBCFE"/>
	</linearGradient>
	<path class="st9" d="M1254.6,487.8c-12.8-6.4-28.8-4.8-41.7,1.6c-12.6,6.3-172,130-230.8,108.7c39.4,61,107.9,101.3,185.9,101.3
		c58.9,0,112.4-23,152-60.5c-12.9-87.2-36.7-120.6-36.7-120.6S1266.4,493.7,1254.6,487.8z"/>
	<linearGradient id="SVGID_7_" gradientUnits="userSpaceOnUse" x1="867.8219" y1="615.7493" x2="1000.734" y2="615.7493">
		<stop  offset="0" style="stop-color:#8DA6B0"/>
		<stop  offset="1" style="stop-color:#859FA5"/>
	</linearGradient>
	<path class="st10" d="M867.8,502.8c7.6,94.2,58.6,176.1,132.9,225.8c-42.8-50-31.9-92.8-26-132.2c0-0.1,0-0.2,0-0.3
		c0.1-0.5,0.2-0.9,0.2-1.4c-0.2-0.1-0.5-0.2-0.7-0.4C926,570.4,898.3,546.9,867.8,502.8z"/>
	<g>
		<g>
			<path class="st11" d="M401.2,603.8c0,30.4-12.4,56.5-37,78.3c-24.7,21.8-57,31.8-96.9,29.9c-49.4-3.8-88.3-17.1-116.8-39.9
				l39.9-59.8c28.5,11.4,57,19.7,85.5,24.9c17.1-3.3,28.5-11.1,34.2-23.5c-1.9-18-14.5-31.6-37.7-40.6
				c-42.3-22.3-65.8-35.4-70.5-39.2c-25.2-19-37.7-41.5-37.7-67.7c0-28,11.2-51.5,33.5-70.5c22.3-19,47.7-28.5,76.2-28.5
				c25.6,0,47.2,6.2,64.8,18.5c15.2,4.8,29.4,13.8,42.7,27.1l-42.7,48.4c-20.9-11.4-43.9-17.1-69.1-17.1c-4.3,0-8.4,1.8-12.5,5.3
				c-4,3.6-6.1,7.7-6.1,12.5c0,8.5,13.1,18.3,39.2,29.2c35.1,14.7,59.1,27.1,71.9,37C388.2,548.3,401.2,573.4,401.2,603.8z"/>
			<path class="st11" d="M813.6,544c0,48.9-14.5,90.7-43.4,125.4c-31.3,36.6-71,54.8-118.9,54.8c-40.8,0-75-12.4-102.6-37v203.7
				h-90.5V375.2l49.9,43.4c22.8-30.4,62.7-47.5,119.7-51.3c62.7,0,109.7,17.3,141,52C798.6,452.6,813.6,494.1,813.6,544z M724.6,544
				c0-28-8.4-51.3-25.3-69.8c-16.9-18.5-39.3-27.8-67.3-27.8c-26.1,0-47,9.6-62.7,28.8c-15.7,19.2-23.5,42.1-23.5,68.7
				c0,27.5,7.4,50.6,22.1,69.1c15.2,19.9,36.1,30.4,62.7,31.3c1.9-0.5,9.5-1.4,22.8-2.8c10-0.5,19.9-4.3,29.9-11.4
				C710.8,611.2,724.6,582.5,724.6,544z"/>
		</g>
	</g>
	<path class="st11" d="M1724.9,450.7h-62v252.8h-90.5V450.7l-45.6-0.7l45.6-81.2V251.3h90.5v117.5h62V450.7z"/>
	<path class="st11" d="M1980.5,444.3h-62l-0.7,361.8h-89.7V444.3h-47l47-84l-1.4-49.9c-1.9-34.2,15.2-65.5,51.3-94
		c36.1-28.5,70.3-41.8,102.6-39.9v79.8c-41.8,5.7-62.7,31.3-62.7,76.9l0.7,27.1l62-1.4V444.3z"/>
	<path class="st11" d="M2140.8,193.6v94h-91.2v-94H2140.8z M2142.9,703.5h-90.5V365.9h90.5V703.5z"/>
	<path class="st11" d="M2410,450.7h-62v252.8h-90.5V450.7L2212,450l45.6-81.2V251.3h90.5v117.5h62V450.7z"/>
</g>
</svg>
