<svg xmlns="http://www.w3.org/2000/svg" viewBox="0 0 63.11 55.61"><defs><style>.cls-1,.cls-2,.cls-3{fill:none;stroke:#c2bed2;stroke-width:3px;}.cls-1{stroke-linejoin:round;}.cls-2{stroke-linecap:round;}.cls-2,.cls-3{stroke-miterlimit:10;}</style></defs><title>calendar</title><g id="Layer_2" data-name="Layer 2"><g id="Layer_1-2" data-name="Layer 1"><line class="cls-1" x1="1.62" y1="21.13" x2="61.49" y2="21.13"/><line class="cls-2" x1="14.96" y1="1.5" x2="14.96" y2="13.14"/><line class="cls-2" x1="45.21" y1="1.5" x2="45.21" y2="13.14"/><line class="cls-2" x1="30.09" y1="1.5" x2="30.09" y2="13.14"/><polyline class="cls-3" points="15.75 30.21 26.15 30.21 26.15 37.58 17.02 37.58 17.02 44.97 27.5 44.97"/><polyline class="cls-3" points="34.47 30.21 44.54 30.21 44.54 44.97 34.46 44.97"/><line class="cls-3" x1="34.47" y1="37.59" x2="44.48" y2="37.59"/><path class="cls-1" d="M50.5,6.91h6.11a5,5,0,0,1,5,5v37.2a5,5,0,0,1-5,5H6.5a5,5,0,0,1-5-5V11.91a5,5,0,0,1,5-5h8.37"/><line class="cls-1" x1="35.41" y1="6.91" x2="45.07" y2="6.91"/><line class="cls-1" x1="20.27" y1="6.91" x2="30.03" y2="6.91"/></g></g></svg>