<svg xmlns="http://www.w3.org/2000/svg" viewBox="0 0 53.81 65.9"><defs><style>.cls-1,.cls-2,.cls-3{fill:none;stroke:#b4b0c8;stroke-width:3px;}.cls-1{stroke-miterlimit:10;}.cls-2,.cls-3{stroke-linejoin:round;}.cls-3{stroke-linecap:round;}</style></defs><title>coffee</title><g id="Layer_2" data-name="Layer 2"><g id="Layer_1-2" data-name="Layer 1"><path class="cls-1" d="M42.53,30.47h1.81a7.73,7.73,0,0,1,8,7.45,7.72,7.72,0,0,1-8,7.45H42.53"/><line class="cls-1" y1="64.4" x2="45.87" y2="64.4"/><path class="cls-2" d="M42.19,48.87a8.49,8.49,0,0,1-8.46,8.46H12.14a8.49,8.49,0,0,1-8.46-8.46V24.49H42.19V48.87Z"/><path class="cls-3" d="M35,1.5H18.86a3.89,3.89,0,0,0,0,7.78h7.21a3,3,0,0,1,0,6H22.91A2.92,2.92,0,0,0,20,18.17v.49"/><line class="cls-3" x1="10.15" y1="30.94" x2="10.15" y2="40.78"/></g></g></svg>