<svg xmlns="http://www.w3.org/2000/svg" viewBox="0 0 51.45 58.82"><defs><style>.cls-1,.cls-2{fill:none;stroke:#b4b0c8;stroke-linecap:round;stroke-width:3px;}.cls-1{stroke-linejoin:round;}.cls-2{stroke-miterlimit:10;}</style></defs><title>douch</title><g id="Layer_2" data-name="Layer 2"><g id="Layer_1-2" data-name="Layer 1"><path class="cls-1" d="M43.46,26.07C43.46,18.29,34.77,12,24,12c-8.78,0-16.21,4.23-18.6,10"/><path class="cls-2" d="M50,1.5H29.63a5.58,5.58,0,0,0-5.57,5.57v4.72"/><path class="cls-1" d="M16,26.4H44.58a2,2,0,0,1,2,2v3.2H1.5V28.4a2,2,0,0,1,2-2H8.13"/><line class="cls-1" x1="8.92" y1="37.27" x2="8.92" y2="43.36"/><line class="cls-1" x1="8.92" y1="47.88" x2="8.92" y2="49.11"/><line class="cls-1" x1="8.92" y1="53.51" x2="8.92" y2="57.28"/><line class="cls-1" x1="23.37" y1="37.27" x2="23.37" y2="42.42"/><line class="cls-1" x1="23.38" y1="55.35" x2="23.38" y2="57.32"/><line class="cls-1" x1="23.37" y1="46.85" x2="23.37" y2="51.08"/><line class="cls-1" x1="16.15" y1="37.27" x2="16.15" y2="46.58"/><line class="cls-1" x1="16.15" y1="51.18" x2="16.15" y2="57.29"/><line class="cls-1" x1="30.6" y1="57.32" x2="30.6" y2="51.66"/><line class="cls-1" x1="30.6" y1="39.08" x2="30.6" y2="37.27"/><line class="cls-1" x1="30.6" y1="47.23" x2="30.6" y2="43.58"/><line class="cls-1" x1="37.83" y1="57.32" x2="37.83" y2="48.24"/><line class="cls-1" x1="37.83" y1="43.69" x2="37.83" y2="37.3"/></g></g></svg>