<svg xmlns="http://www.w3.org/2000/svg" xmlns:xlink="http://www.w3.org/1999/xlink" viewBox="0 0 373.31 373.3"><defs><style>.cls-1{fill:none;}.cls-2{clip-path:url(#clip-path);}.cls-3{fill:#f99d3e;}.cls-4{opacity:0.42;}.cls-5{clip-path:url(#clip-path-3);}.cls-6{fill:#f49540;}.cls-7{fill:#fbb842;}.cls-8{opacity:0.29;}.cls-9{clip-path:url(#clip-path-6);}.cls-10{clip-path:url(#clip-path-7);}.cls-11{fill:url(#linear-gradient);}.cls-12{fill:#ec9922;}</style><clipPath id="clip-path"><rect class="cls-1" width="373.31" height="373.3"/></clipPath><clipPath id="clip-path-3"><rect class="cls-1" x="186.66" width="186.66" height="373.3"/></clipPath><clipPath id="clip-path-6"><rect class="cls-1" x="186.67" y="53.34" width="133.3" height="266.64"/></clipPath><clipPath id="clip-path-7"><path class="cls-1" d="M186.67,319.94c0,4.06,0-266.6,0-266.6,73.51,0,133.3,59.81,133.3,133.3s-59.79,133.3-133.3,133.3"/></clipPath><linearGradient id="linear-gradient" x1="-117.11" y1="212.28" x2="-116.11" y2="212.28" gradientTransform="translate(15797.62 -28107.4) scale(133.3)" gradientUnits="userSpaceOnUse"><stop offset="0" stop-color="#f99d3e"/><stop offset="0.61" stop-color="#faac40"/><stop offset="1" stop-color="#fbb842"/></linearGradient></defs><title>gold</title><g id="Layer_2" data-name="Layer 2"><g id="Layer_1-2" data-name="Layer 1"><g class="cls-2"><path class="cls-3" d="M373.31,186.64c0,16.06-16.22,29.79-20.19,44.61-4.1,15.33,3,35.31-4.8,48.73-7.87,13.62-28.78,17.44-39.84,28.48s-14.86,32-28.48,39.84c-13.42,7.76-33.39.69-48.73,4.8-14.82,4-28.55,20.2-44.61,20.2s-29.79-16.23-44.61-20.2c-15.33-4.09-35.31,3-48.74-4.8-13.61-7.87-17.44-28.78-28.48-39.84S32.88,293.6,25,280c-7.76-13.42-.68-33.39-4.8-48.73C16.22,216.43,0,202.7,0,186.64S16.22,156.85,20.19,142c4.1-15.33-3-35.31,4.8-48.73,7.87-13.62,28.79-17.44,39.84-28.48S79.7,32.86,93.31,25c13.43-7.76,33.39-.69,48.74-4.8C156.88,16.22,170.61,0,186.67,0s29.79,16.22,44.61,20.19c15.33,4.1,35.31-3,48.74,4.8,13.61,7.87,17.43,28.79,28.47,39.84s32,14.87,39.84,28.48c7.77,13.43.69,33.39,4.8,48.74,4,14.8,20.18,28.53,20.18,44.59"/></g><g class="cls-2"><g class="cls-4"><g class="cls-5"><path class="cls-6" d="M373.31,186.64c0,16.06-16.22,29.79-20.19,44.61-4.1,15.33,3,35.31-4.8,48.73-7.87,13.62-28.78,17.44-39.84,28.48s-14.86,32-28.48,39.84c-13.42,7.76-33.39.69-48.73,4.8-14.82,4-28.55,20.2-44.61,20.2V0c16.07,0,29.79,16.22,44.61,20.19,15.33,4.1,35.31-3,48.74,4.8,13.61,7.87,17.43,28.79,28.47,39.84s32,14.87,39.84,28.48c7.77,13.43.69,33.39,4.8,48.74,4,14.8,20.18,28.53,20.18,44.59"/></g></g></g><g class="cls-2"><path class="cls-7" d="M186.67,319.94c-73.5,0-133.29-59.81-133.29-133.3S113.17,53.35,186.67,53.35,320,113.15,320,186.64s-59.8,133.3-133.3,133.3"/></g><g class="cls-2"><g class="cls-8"><g class="cls-9"><g class="cls-10"><rect class="cls-11" x="186.67" y="53.34" width="133.3" height="270.66"/></g></g></g></g><g class="cls-2"><path class="cls-12" d="M274.51,158.77h-61.2L194.4,100.56a8.13,8.13,0,0,0-15.46,0L160,158.77H98.83a8.12,8.12,0,0,0-4.77,14.69l49.52,36-18.91,58.21a8.13,8.13,0,0,0,12.5,9.09l49.5-36,49.52,36a8.12,8.12,0,0,0,12.5-9.09l-18.91-58.2,49.52-36a8.13,8.13,0,0,0-4.79-14.7"/></g></g></g></svg>