<svg xmlns="http://www.w3.org/2000/svg" viewBox="0 0 61.42 66.11"><defs><style>.cls-1,.cls-2{fill:none;stroke:#b4b0c8;stroke-linejoin:round;stroke-width:3px;}.cls-1{stroke-linecap:round;}</style></defs><title>health</title><g id="Layer_2" data-name="Layer 2"><g id="Layer_1-2" data-name="Layer 1"><path class="cls-1" d="M45.31,12.19c-3.4,4.3-10.73,3.88-10.73,3.88s-.19-8,3.8-10.94c3-2.2,11-3.63,11-3.63S47.78,9.07,45.31,12.19Z"/><path class="cls-1" d="M47.47,28.27c2.37.88,4.75,3,5.91,7.81"/><path class="cls-2" d="M14.41,56.61a30.05,30.05,0,0,0,4.83,5.49S23,66.49,29.4,63.65a17.69,17.69,0,0,1,5-1.19,17.59,17.59,0,0,1,5,1.19c6.4,2.84,10.17-1.55,10.17-1.55,13.2-11.83,10-28.76,10-28.76C55.6,17,41.69,22.05,41.69,22.05a40.22,40.22,0,0,1-7.27.91,40.22,40.22,0,0,1-7.27-.91S13.23,17,9.27,33.34a28.31,28.31,0,0,0-.34,5.59"/><path class="cls-1" d="M27.35,7.37s4.34,1.74,7.23,8.7"/><path class="cls-1" d="M9.84,30.7H6A4.32,4.32,0,0,0,1.5,34.82,4.33,4.33,0,0,0,6,38.94H33.85V51.72H6A4.33,4.33,0,0,1,1.5,47.6V34.82"/><line class="cls-1" x1="10.18" y1="51.44" x2="10.18" y2="46.6"/><line class="cls-1" x1="18.27" y1="51.44" x2="18.27" y2="46.6"/><line class="cls-1" x1="26.35" y1="51.44" x2="26.35" y2="46.6"/></g></g></svg>