<svg xmlns="http://www.w3.org/2000/svg" xmlns:xlink="http://www.w3.org/1999/xlink" viewBox="0 0 373.31 373.3"><defs><style>.cls-1{fill:none;}.cls-2{clip-path:url(#clip-path);}.cls-3{fill:url(#linear-gradient);}.cls-4{clip-path:url(#clip-path-2);}.cls-5{opacity:0.42;}.cls-6{clip-path:url(#clip-path-3);}.cls-7{clip-path:url(#clip-path-4);}.cls-8{fill:url(#linear-gradient-2);}.cls-9{clip-path:url(#clip-path-5);}.cls-10{fill:url(#linear-gradient-3);}.cls-11{clip-path:url(#clip-path-6);}.cls-12{fill:url(#linear-gradient-4);}.cls-13{clip-path:url(#clip-path-7);}.cls-14{fill:url(#linear-gradient-5);}</style><clipPath id="clip-path"><path class="cls-1" d="M186.67,0c-16.06,0-29.79,16.22-44.62,20.18-6.6,1.76-14.05,1.46-21.47,1.17C110.75,21,101,20.55,93.31,25,79.7,32.86,75.89,53.76,64.83,64.82S32.86,79.68,25,93.3c-7.77,13.42-.7,33.4-4.8,48.73C16.22,156.85,0,170.58,0,186.64s16.22,29.79,20.19,44.61c4.11,15.34-3,35.31,4.8,48.73,7.89,13.62,28.79,17.43,39.84,28.48s14.87,32,28.48,39.84c7.66,4.44,17.46,4,27.31,3.65,7.41-.3,14.85-.6,21.43,1.15,14.81,4,28.54,20.19,44.61,20.19s29.79-16.22,44.6-20.19c6.6-1.76,14.05-1.46,21.47-1.17,9.84.4,19.61.8,27.27-3.63,13.61-7.89,17.42-28.78,28.48-39.84s32-14.86,39.84-28.48c7.78-13.42.7-33.4,4.8-48.73,4-14.82,20.19-28.55,20.19-44.61s-16.22-29.79-20.18-44.59c-4.11-15.35,3-35.31-4.8-48.74-7.88-13.61-28.78-17.42-39.84-28.48S293.63,32.86,280,25c-7.66-4.44-17.46-4-27.31-3.64-7.41.3-14.84.6-21.42-1.16C216.46,16.22,202.74,0,186.67,0Z"/></clipPath><linearGradient id="linear-gradient" x1="-117.68" y1="211.26" x2="-116.68" y2="211.26" gradientTransform="translate(43933.03 -78680.36) scale(373.31)" gradientUnits="userSpaceOnUse"><stop offset="0" stop-color="#5d6486"/><stop offset="1" stop-color="#5d6486"/></linearGradient><clipPath id="clip-path-2"><rect class="cls-1" width="373.31" height="373.3"/></clipPath><clipPath id="clip-path-3"><rect class="cls-1" x="186.66" width="186.66" height="373.3"/></clipPath><clipPath id="clip-path-4"><path class="cls-1" d="M373.31,186.64c0,16.06-16.22,29.79-20.19,44.61-4.1,15.33,3,35.31-4.8,48.73-7.87,13.62-28.78,17.44-39.84,28.48s-14.86,32-28.48,39.84c-13.42,7.76-33.39.69-48.73,4.8-14.82,4-28.55,20.19-44.61,20.19V0c16.07,0,29.79,16.22,44.61,20.19,15.33,4.1,35.31-3,48.74,4.8,13.61,7.87,17.44,28.79,28.48,39.84s31.95,14.87,39.84,28.48c7.76,13.43.68,33.39,4.79,48.74,4,14.8,20.18,28.53,20.18,44.59"/></clipPath><linearGradient id="linear-gradient-2" x1="-117.37" y1="211.82" x2="-116.37" y2="211.82" gradientTransform="translate(22094.27 -39350.78) scale(186.66)" gradientUnits="userSpaceOnUse"><stop offset="0" stop-color="#596080"/><stop offset="1" stop-color="#596080"/></linearGradient><clipPath id="clip-path-5"><path class="cls-1" d="M53.38,186.64c0,73.49,59.79,133.3,133.29,133.3S320,260.13,320,186.64s-59.79-133.3-133.3-133.3S53.38,113.15,53.38,186.64"/></clipPath><linearGradient id="linear-gradient-3" x1="-117.56" y1="211.48" x2="-116.56" y2="211.48" gradientTransform="translate(31393.24 -56193.34) scale(266.59)" gradientUnits="userSpaceOnUse"><stop offset="0" stop-color="#656f93"/><stop offset="1" stop-color="#656f93"/></linearGradient><clipPath id="clip-path-6"><path class="cls-1" d="M186.67,319.94h0m0,0c73.51,0,133.3-59.81,133.3-133.3s-59.79-133.3-133.3-133.3c0,0,0,262.63,0,266.6"/></clipPath><linearGradient id="linear-gradient-4" x1="-117.11" y1="212.26" x2="-116.11" y2="212.26" gradientTransform="translate(15797.62 -28107.27) scale(133.3)" gradientUnits="userSpaceOnUse"><stop offset="0" stop-color="#636c90"/><stop offset="0.99" stop-color="#636c90"/><stop offset="1" stop-color="#636c90"/></linearGradient><clipPath id="clip-path-7"><path class="cls-1" d="M178.94,100.56,160,158.77H98.83a8.12,8.12,0,0,0-4.77,14.69l49.52,36-18.91,58.21a8.13,8.13,0,0,0,12.5,9.09l49.5-36,49.52,36a8.12,8.12,0,0,0,12.5-9.09l-18.91-58.2,49.52-36a8.13,8.13,0,0,0-4.79-14.7H213.32L194.4,100.56a8.13,8.13,0,0,0-15.46,0"/></clipPath><linearGradient id="linear-gradient-5" x1="-117.39" y1="211.8" x2="-116.39" y2="211.8" gradientTransform="translate(22624.68 -40468.97) scale(191.96)" xlink:href="#linear-gradient"/></defs><title>silver</title><g id="Layer_2" data-name="Layer 2"><g id="Layer_1-2" data-name="Layer 1"><g class="cls-2"><rect class="cls-3" width="373.31" height="373.3"/></g><g class="cls-4"><g class="cls-5"><g class="cls-6"><g class="cls-7"><rect class="cls-8" x="186.66" width="186.65" height="373.3"/></g></g></g></g><g class="cls-9"><rect class="cls-10" x="53.38" y="53.34" width="266.59" height="266.59"/></g><g class="cls-11"><rect class="cls-12" x="186.67" y="53.34" width="133.29" height="266.65"/></g><g class="cls-13"><rect class="cls-14" x="87.7" y="94.94" width="197.97" height="186.43"/></g></g></g></svg>